Montserrat-Hairline.ufo
<glyph name="exclam" format="1">
  <advance width="192"/>
  <unicode hex="0021"/>
  <outline>
    <contour>
      <point x="86" y="682" type="line"/>
      <point x="86" y="520" type="line"/>
      <point x="86" y="188" type="line"/>
      <point x="106" y="188" type="line"/>
      <point x="106" y="520" type="line"/>
      <point x="106" y="682" type="line"/>
    </contour>
    <component base="period" xOffset="11"/>
  </outline>
</glyph>
<glyph name="numbersign" format="1">
  <advance width="707"/>
  <unicode hex="0023"/>
  <outline>
    <contour>
      <point x="450" y="0" type="line"/>
      <point x="536" y="699" type="line"/>
      <point x="516" y="699" type="line"/>
      <point x="430" y="0" type="line"/>
    </contour>
    <contour>
      <point x="626" y="228" type="line"/>
      <point x="46" y="228" type="line"/>
      <point x="47" y="208" type="line"/>
      <point x="627" y="208" type="line"/>
    </contour>
    <contour>
      <point x="190" y="0" type="line"/>
      <point x="276" y="699" type="line"/>
      <point x="256" y="699" type="line"/>
      <point x="170" y="0" type="line"/>
    </contour>
    <contour>
      <point x="658" y="488" type="line"/>
      <point x="78" y="488" type="line"/>
      <point x="79" y="468" type="line"/>
      <point x="659" y="468" type="line"/>
    </contour>
  </outline>
</glyph>
<glyph name="dollar" format="1">
  <advance width="593"/>
  <unicode hex="0024"/>
  <outline>
    <contour>
      <point x="280" y="604" type="line"/>
      <point x="280" y="-119" type="line"/>
      <point x="300" y="-119" type="line"/>
      <point x="300" y="604" type="line"/>
    </contour>
    <contour>
      <point x="280" y="804" type="line"/>
      <point x="280" y="-29" type="line"/>
      <point x="300" y="-29" type="line"/>
      <point x="300" y="804" type="line"/>
    </contour>
    <component base="S"/>
  </outline>
</glyph>
<glyph name="ampersand" format="1">
  <advance width="626"/>
  <unicode hex="0026"/>
  <outline>
    <contour>
      <point x="214" y="699"/>
      <point x="151" y="638"/>
      <point x="151" y="562" type="curve" smooth="yes"/>
      <point x="151" y="430"/>
      <point x="337" y="271"/>
      <point x="606" y="0" type="curve"/>
      <point x="619" y="13" type="line"/>
      <point x="350" y="285"/>
      <point x="171" y="439"/>
      <point x="171" y="562" type="curve" smooth="yes"/>
      <point x="171" y="627"/>
      <point x="224" y="679"/>
      <point x="304" y="679" type="curve" smooth="yes"/>
      <point x="377" y="679"/>
      <point x="423" y="636"/>
      <point x="423" y="572" type="curve" smooth="yes"/>
      <point x="423" y="395"/>
      <point x="60" y="402"/>
      <point x="60" y="183" type="curve" smooth="yes"/>
      <point x="60" y="78"/>
      <point x="146" y="0"/>
      <point x="250" y="0" type="curve" smooth="yes"/>
      <point x="376" y="0"/>
      <point x="492" y="114"/>
      <point x="577" y="299" type="curve"/>
      <point x="558" y="311" type="line"/>
      <point x="476" y="127"/>
      <point x="367" y="20"/>
      <point x="250" y="20" type="curve" smooth="yes"/>
      <point x="156" y="20"/>
      <point x="80" y="88"/>
      <point x="80" y="183" type="curve" smooth="yes"/>
      <point x="80" y="381"/>
      <point x="443" y="383"/>
      <point x="443" y="571" type="curve" smooth="yes"/>
      <point x="443" y="646"/>
      <point x="388" y="699"/>
      <point x="304" y="699" type="curve" smooth="yes"/>
    </contour>
  </outline>
</glyph>
<glyph name="quotesingle" format="1">
  <advance width="140"/>
  <unicode hex="0027"/>
  <outline>
    <contour>
      <point x="60" y="699" type="line"/>
      <point x="60" y="509" type="line"/>
      <point x="80" y="509" type="line"/>
      <point x="80" y="699" type="line"/>
    </contour>
  </outline>
</glyph>
<glyph name="asterisk" format="1">
  <advance width="298"/>
  <unicode hex="002A"/>
  <outline>
    <contour>
      <point x="268" y="532" type="line"/>
      <point x="167" y="590" type="line"/>
      <point x="268" y="648" type="line"/>
      <point x="259" y="665" type="line"/>
      <point x="158" y="606" type="line"/>
      <point x="158" y="723" type="line"/>
      <point x="140" y="723" type="line"/>
      <point x="140" y="606" type="line"/>
      <point x="39" y="665" type="line"/>
      <point x="30" y="648" type="line"/>
      <point x="130" y="590" type="line"/>
      <point x="30" y="532" type="line"/>
      <point x="39" y="515" type="line"/>
      <point x="140" y="574" type="line"/>
      <point x="140" y="457" type="line"/>
      <point x="158" y="457" type="line"/>
      <point x="158" y="574" type="line"/>
      <point x="259" y="515" type="line"/>
    </contour>
  </outline>
</glyph>
<glyph name="plus" format="1">
  <advance width="480"/>
  <unicode hex="002B"/>
  <outline>
    <contour>
      <point x="40" y="330" type="line"/>
      <point x="40" y="310" type="line"/>
      <point x="440" y="310" type="line"/>
      <point x="440" y="330" type="line"/>
    </contour>
    <contour>
      <point x="230" y="520" type="line"/>
      <point x="230" y="120" type="line"/>
      <point x="250" y="120" type="line"/>
      <point x="250" y="520" type="line"/>
    </contour>
  </outline>
</glyph>
<glyph name="hyphen" format="1">
  <advance width="357"/>
  <unicode hex="002D"/>
  <outline>
    <contour>
      <point x="70" y="310" type="line"/>
      <point x="70" y="290" type="line"/>
      <point x="287" y="290" type="line"/>
      <point x="287" y="310" type="line"/>
    </contour>
  </outline>
</glyph>
<glyph name="period" format="1">
  <advance width="170"/>
  <unicode hex="002E"/>
  <outline>
    <contour>
      <point x="71" y="45"/>
      <point x="59" y="33"/>
      <point x="59" y="19" type="curve" smooth="yes"/>
      <point x="59" y="5"/>
      <point x="71" y="-7"/>
      <point x="85" y="-7" type="curve" smooth="yes"/>
      <point x="99" y="-7"/>
      <point x="111" y="5"/>
      <point x="111" y="19" type="curve" smooth="yes"/>
      <point x="111" y="33"/>
      <point x="99" y="45"/>
      <point x="85" y="45" type="curve" smooth="yes"/>
    </contour>
  </outline>
</glyph>
<glyph name="zero" format="1">
  <advance width="673"/>
  <unicode hex="0030"/>
  <outline>
    <contour>
      <point x="159" y="699"/>
      <point x="60" y="574"/>
      <point x="60" y="350" type="curve" smooth="yes"/>
      <point x="60" y="125"/>
      <point x="159" y="0"/>
      <point x="336" y="0" type="curve" smooth="yes"/>
      <point x="514" y="0"/>
      <point x="613" y="125"/>
      <point x="613" y="350" type="curve" smooth="yes"/>
      <point x="613" y="574"/>
      <point x="514" y="699"/>
      <point x="336" y="699" type="curve" smooth="yes"/>
    </contour>
    <contour>
      <point x="501" y="679"/>
      <point x="593" y="562"/>
      <point x="593" y="350" type="curve" smooth="yes"/>
      <point x="593" y="138"/>
      <point x="501" y="20"/>
      <point x="336" y="20" type="curve" smooth="yes"/>
      <point x="171" y="20"/>
      <point x="80" y="138"/>
      <point x="80" y="350" type="curve" smooth="yes"/>
      <point x="80" y="562"/>
      <point x="171" y="679"/>
      <point x="336" y="679" type="curve" smooth="yes"/>
    </contour>
  </outline>
</glyph>
<glyph name="one" format="1">
  <advance width="345"/>
  <unicode hex="0031"/>
  <outline>
    <contour>
      <point x="22" y="699" type="line"/>
      <point x="22" y="679" type="line"/>
      <point x="172" y="679" type="line"/>
      <point x="172" y="0" type="line"/>
      <point x="192" y="0" type="line"/>
      <point x="192" y="699" type="line"/>
    </contour>
  </outline>
</glyph>
<glyph name="two" format="1">
  <advance width="570"/>
  <unicode hex="0032"/>
  <outline>
    <contour>
      <point x="185" y="699"/>
      <point x="107" y="665"/>
      <point x="52" y="608" type="curve"/>
      <point x="66" y="594" type="line"/>
      <point x="117" y="647"/>
      <point x="190" y="679"/>
      <point x="258" y="679" type="curve"/>
      <point x="368" y="679"/>
      <point x="435" y="625"/>
      <point x="435" y="536" type="curve"/>
      <point x="435" y="481"/>
      <point x="392" y="402"/>
      <point x="321" y="328" type="curve" smooth="yes"/>
      <point x="51" y="28" type="line"/>
      <point x="51" y="0" type="line"/>
      <point x="507" y="0" type="line"/>
      <point x="507" y="20" type="line"/>
      <point x="71" y="20" type="line"/>
      <point x="335" y="314" type="line" smooth="yes"/>
      <point x="410" y="392"/>
      <point x="455" y="476"/>
      <point x="455" y="536" type="curve"/>
      <point x="455" y="637"/>
      <point x="380" y="699"/>
      <point x="258" y="699" type="curve"/>
    </contour>
  </outline>
</glyph>
<glyph name="three" format="1">
  <advance width="508"/>
  <unicode hex="0033"/>
  <outline>
    <contour>
      <point x="166" y="394" type="line"/>
      <point x="409" y="681" type="line"/>
      <point x="409" y="699" type="line"/>
      <point x="41" y="699" type="line"/>
      <point x="41" y="679" type="line"/>
      <point x="382" y="679" type="line"/>
      <point x="138" y="392" type="line"/>
      <point x="138" y="374" type="line"/>
      <point x="208" y="374" type="line" smooth="yes"/>
      <point x="341" y="374"/>
      <point x="422" y="317"/>
      <point x="422" y="207" type="curve" smooth="yes"/>
      <point x="422" y="98"/>
      <point x="343" y="20"/>
      <point x="210" y="20" type="curve" smooth="yes"/>
      <point x="143" y="20"/>
      <point x="74" y="42"/>
      <point x="25" y="75" type="curve"/>
      <point x="13" y="59" type="line"/>
      <point x="66" y="24"/>
      <point x="139" y="0"/>
      <point x="210" y="0" type="curve" smooth="yes"/>
      <point x="353" y="0"/>
      <point x="442" y="86"/>
      <point x="442" y="211" type="curve" smooth="yes"/>
      <point x="442" y="327"/>
      <point x="349" y="394"/>
      <point x="208" y="394" type="curve" smooth="yes"/>
    </contour>
  </outline>
</glyph>
<glyph name="four" format="1">
  <advance width="543"/>
  <unicode hex="0034"/>
  <outline>
    <contour>
      <point x="302" y="699" type="line"/>
      <point x="34" y="233" type="line"/>
      <point x="34" y="208" type="line"/>
      <point x="372" y="208" type="line"/>
      <point x="372" y="0" type="line"/>
      <point x="392" y="0" type="line"/>
      <point x="392" y="208" type="line"/>
      <point x="504" y="208" type="line"/>
      <point x="504" y="228" type="line"/>
      <point x="392" y="228" type="line"/>
      <point x="392" y="451" type="line"/>
      <point x="372" y="451" type="line"/>
      <point x="372" y="228" type="line"/>
      <point x="54" y="228" type="line"/>
      <point x="325" y="699" type="line"/>
    </contour>
  </outline>
</glyph>
<glyph name="five" format="1">
  <advance width="547"/>
  <unicode hex="0035"/>
  <outline>
    <contour>
      <point x="89" y="699" type="line"/>
      <point x="89" y="361" type="line"/>
      <point x="143" y="383"/>
      <point x="211" y="397"/>
      <point x="262" y="397" type="curve"/>
      <point x="386" y="397"/>
      <point x="467" y="329"/>
      <point x="467" y="224" type="curve"/>
      <point x="467" y="101"/>
      <point x="386" y="22"/>
      <point x="260" y="22" type="curve"/>
      <point x="196" y="22"/>
      <point x="115" y="47"/>
      <point x="55" y="86" type="curve"/>
      <point x="45" y="70" type="line"/>
      <point x="107" y="29"/>
      <point x="191" y="2"/>
      <point x="260" y="2" type="curve"/>
      <point x="398" y="2"/>
      <point x="487" y="89"/>
      <point x="487" y="224" type="curve"/>
      <point x="487" y="341"/>
      <point x="399" y="417"/>
      <point x="262" y="417" type="curve"/>
      <point x="218" y="417"/>
      <point x="158" y="406"/>
      <point x="109" y="389" type="curve"/>
      <point x="109" y="679" type="line"/>
      <point x="462" y="679" type="line"/>
      <point x="462" y="699" type="line"/>
    </contour>
  </outline>
</glyph>
<glyph name="seven" format="1">
  <advance width="529"/>
  <unicode hex="0037"/>
  <outline>
    <contour>
      <point x="43" y="699" type="line"/>
      <point x="43" y="567" type="line"/>
      <point x="63" y="567" type="line"/>
      <point x="63" y="679" type="line"/>
      <point x="473" y="679" type="line"/>
      <point x="160" y="0" type="line"/>
      <point x="182" y="0" type="line"/>
      <point x="492" y="674" type="line"/>
      <point x="492" y="699" type="line"/>
    </contour>
  </outline>
</glyph>
<glyph name="eight" format="1">
  <advance width="601"/>
  <unicode hex="0038"/>
  <outline>
    <contour>
      <point x="172" y="699"/>
      <point x="92" y="638"/>
      <point x="92" y="533" type="curve" smooth="yes"/>
      <point x="92" y="451"/>
      <point x="140" y="399"/>
      <point x="221" y="374" type="curve"/>
      <point x="121" y="350"/>
      <point x="60" y="289"/>
      <point x="60" y="194" type="curve" smooth="yes"/>
      <point x="60" y="71"/>
      <point x="151" y="0"/>
      <point x="301" y="0" type="curve" smooth="yes"/>
      <point x="450" y="0"/>
      <point x="541" y="71"/>
      <point x="541" y="194" type="curve" smooth="yes"/>
      <point x="541" y="289"/>
      <point x="480" y="350"/>
      <point x="380" y="374" type="curve"/>
      <point x="461" y="399"/>
      <point x="509" y="451"/>
      <point x="509" y="533" type="curve" smooth="yes"/>
      <point x="509" y="638"/>
      <point x="430" y="699"/>
      <point x="301" y="699" type="curve" smooth="yes"/>
    </contour>
    <contour>
      <point x="438" y="361"/>
      <point x="521" y="297"/>
      <point x="521" y="195" type="curve" smooth="yes"/>
      <point x="521" y="85"/>
      <point x="437" y="20"/>
      <point x="301" y="20" type="curve" smooth="yes"/>
      <point x="163" y="20"/>
      <point x="80" y="86"/>
      <point x="80" y="196" type="curve" smooth="yes"/>
      <point x="80" y="298"/>
      <point x="164" y="361"/>
      <point x="300" y="361" type="curve" smooth="yes"/>
    </contour>
    <contour>
      <point x="418" y="679"/>
      <point x="489" y="623"/>
      <point x="489" y="531" type="curve" smooth="yes"/>
      <point x="489" y="438"/>
      <point x="418" y="381"/>
      <point x="301" y="381" type="curve" smooth="yes"/>
      <point x="184" y="381"/>
      <point x="112" y="438"/>
      <point x="112" y="531" type="curve" smooth="yes"/>
      <point x="112" y="623"/>
      <point x="184" y="679"/>
      <point x="301" y="679" type="curve" smooth="yes"/>
    </contour>
  </outline>
</glyph>
<glyph name="less" format="1">
  <advance width="480"/>
  <unicode hex="003C"/>
  <outline>
    <contour>
      <point x="40" y="341" type="line"/>
      <point x="40" y="315" type="line"/>
      <point x="440" y="129" type="line"/>
      <point x="440" y="151" type="line"/>
      <point x="59" y="328" type="line"/>
      <point x="440" y="505" type="line"/>
      <point x="440" y="527" type="line"/>
    </contour>
  </outline>
</glyph>
<glyph name="equal" format="1">
  <advance width="480"/>
  <unicode hex="003D"/>
  <outline>
    <contour>
      <point x="40" y="430" type="line"/>
      <point x="40" y="410" type="line"/>
      <point x="440" y="410" type="line"/>
      <point x="440" y="430" type="line"/>
    </contour>
    <contour>
      <point x="40" y="230" type="line"/>
      <point x="40" y="210" type="line"/>
      <point x="440" y="210" type="line"/>
      <point x="440" y="230" type="line"/>
    </contour>
  </outline>
</glyph>
<glyph name="A" format="1">
  <advance width="686"/>
  <unicode hex="0041"/>
  <outline>
    <contour>
      <point x="330" y="699" type="line"/>
      <point x="10" y="0" type="line"/>
      <point x="34" y="0" type="line"/>
      <point x="341" y="676" type="line"/>
      <point x="653" y="0" type="line"/>
      <point x="676" y="0" type="line"/>
      <point x="352" y="699" type="line"/>
    </contour>
    <contour>
      <point x="125" y="233" type="line"/>
      <point x="125" y="213" type="line"/>
      <point x="559" y="213" type="line"/>
      <point x="559" y="233" type="line"/>
    </contour>
    <contour>
      <point x="733" y="10" type="move" name="ogonek"/>
    </contour>
    <contour>
      <point x="343" y="699" type="move" name="top"/>
    </contour>
  </outline>
</glyph>
<glyph name="B" format="1">
  <advance width="731"/>
  <unicode hex="0042"/>
  <outline>
    <contour>
      <point x="128" y="699" type="line"/>
      <point x="128" y="0" type="line"/>
      <point x="409" y="0" type="line" smooth="yes"/>
      <point x="568" y="0"/>
      <point x="659" y="68"/>
      <point x="659" y="187" type="curve" smooth="yes"/>
      <point x="659" y="286"/>
      <point x="595" y="351"/>
      <point x="484" y="364" type="curve"/>
      <point x="572" y="379"/>
      <point x="622" y="438"/>
      <point x="622" y="526" type="curve" smooth="yes"/>
      <point x="622" y="636"/>
      <point x="544" y="699"/>
      <point x="409" y="699" type="curve" smooth="yes"/>
    </contour>
    <contour>
      <point x="556" y="353"/>
      <point x="640" y="293"/>
      <point x="640" y="188" type="curve" smooth="yes"/>
      <point x="640" y="81"/>
      <point x="556" y="20"/>
      <point x="409" y="20" type="curve" smooth="yes"/>
      <point x="148" y="20" type="line"/>
      <point x="148" y="353" type="line"/>
      <point x="409" y="353" type="line" smooth="yes"/>
    </contour>
    <contour>
      <point x="532" y="679"/>
      <point x="602" y="623"/>
      <point x="602" y="526" type="curve" smooth="yes"/>
      <point x="602" y="428"/>
      <point x="532" y="372"/>
      <point x="409" y="372" type="curve" smooth="yes"/>
      <point x="148" y="372" type="line"/>
      <point x="148" y="679" type="line"/>
      <point x="409" y="679" type="line" smooth="yes"/>
    </contour>
  </outline>
</glyph>
<glyph name="C" format="1">
  <advance width="705"/>
  <unicode hex="0043"/>
  <outline>
    <contour>
      <point x="212" y="699"/>
      <point x="50" y="542"/>
      <point x="50" y="350" type="curve" smooth="yes"/>
      <point x="50" y="158"/>
      <point x="212" y="0"/>
      <point x="409" y="0" type="curve" smooth="yes"/>
      <point x="501" y="0"/>
      <point x="586" y="35"/>
      <point x="650" y="91" type="curve"/>
      <point x="636" y="104" type="line"/>
      <point x="576" y="51"/>
      <point x="496" y="19"/>
      <point x="409" y="19" type="curve" smooth="yes"/>
      <point x="222" y="19"/>
      <point x="69" y="168"/>
      <point x="69" y="350" type="curve" smooth="yes"/>
      <point x="69" y="532"/>
      <point x="222" y="680"/>
      <point x="409" y="680" type="curve" smooth="yes"/>
      <point x="496" y="680"/>
      <point x="576" y="649"/>
      <point x="636" y="596" type="curve"/>
      <point x="649" y="609" type="line"/>
      <point x="585" y="665"/>
      <point x="501" y="699"/>
      <point x="409" y="699" type="curve" smooth="yes"/>
    </contour>
    <contour>
      <point x="353" y="699" type="move" name="top"/>
    </contour>
    <contour>
      <point x="397" y="0" type="move" name="bottom"/>
    </contour>
  </outline>
</glyph>
<glyph name="D" format="1">
  <advance width="811"/>
  <unicode hex="0044"/>
  <outline>
    <contour>
      <point x="128" y="699" type="line"/>
      <point x="128" y="0" type="line"/>
      <point x="403" y="0" type="line" smooth="yes"/>
      <point x="600" y="0"/>
      <point x="761" y="157"/>
      <point x="761" y="349" type="curve" smooth="yes"/>
      <point x="761" y="542"/>
      <point x="600" y="699"/>
      <point x="403" y="699" type="curve" smooth="yes"/>
    </contour>
    <contour>
      <point x="589" y="679"/>
      <point x="741" y="531"/>
      <point x="741" y="349" type="curve" smooth="yes"/>
      <point x="741" y="168"/>
      <point x="589" y="20"/>
      <point x="403" y="20" type="curve" smooth="yes"/>
      <point x="148" y="20" type="line"/>
      <point x="148" y="679" type="line"/>
      <point x="403" y="679" type="line" smooth="yes"/>
    </contour>
    <contour>
      <point x="406" y="350" type="move" name="center"/>
    </contour>
    <contour>
      <point x="386" y="699" type="move" name="top"/>
    </contour>
  </outline>
</glyph>
<glyph name="E" format="1">
  <advance width="644"/>
  <unicode hex="0045"/>
  <outline>
    <contour>
      <point x="128" y="699" type="line"/>
      <point x="128" y="0" type="line"/>
      <point x="579" y="0" type="line"/>
      <point x="579" y="20" type="line"/>
      <point x="148" y="20" type="line"/>
      <point x="148" y="350" type="line"/>
      <point x="519" y="350" type="line"/>
      <point x="519" y="370" type="line"/>
      <point x="148" y="370" type="line"/>
      <point x="148" y="679" type="line"/>
      <point x="565" y="679" type="line"/>
      <point x="565" y="699" type="line"/>
    </contour>
    <contour>
      <point x="580" y="10" type="move" name="ogonek"/>
    </contour>
    <contour>
      <point x="322" y="0" type="move" name="bottom"/>
    </contour>
    <contour>
      <point x="351" y="699" type="move" name="top"/>
    </contour>
  </outline>
</glyph>
<glyph name="F" format="1">
  <advance width="545"/>
  <unicode hex="0046"/>
  <outline>
    <contour>
      <point x="128" y="699" type="line"/>
      <point x="128" y="0" type="line"/>
      <point x="148" y="0" type="line"/>
      <point x="148" y="323" type="line"/>
      <point x="489" y="323" type="line"/>
      <point x="489" y="343" type="line"/>
      <point x="148" y="343" type="line"/>
      <point x="148" y="679" type="line"/>
      <point x="535" y="679" type="line"/>
      <point x="535" y="699" type="line"/>
    </contour>
  </outline>
</glyph>
<glyph name="H" format="1">
  <advance width="799"/>
  <unicode hex="0048"/>
  <outline>
    <contour>
      <point x="651" y="699" type="line"/>
      <point x="651" y="363" type="line"/>
      <point x="148" y="363" type="line"/>
      <point x="148" y="699" type="line"/>
      <point x="128" y="699" type="line"/>
      <point x="128" y="0" type="line"/>
      <point x="148" y="0" type="line"/>
      <point x="148" y="343" type="line"/>
      <point x="651" y="343" type="line"/>
      <point x="651" y="0" type="line"/>
      <point x="671" y="0" type="line"/>
      <point x="671" y="699" type="line"/>
    </contour>
    <contour>
      <point x="400" y="350" type="move" name="center"/>
    </contour>
    <contour>
      <point x="400" y="699" type="move" name="top"/>
    </contour>
  </outline>
</glyph>
<glyph name="I" format="1">
  <advance width="276"/>
  <unicode hex="0049"/>
  <outline>
    <contour>
      <point x="128" y="699" type="line"/>
      <point x="128" y="0" type="line"/>
      <point x="148" y="0" type="line"/>
      <point x="148" y="699" type="line"/>
    </contour>
    <contour>
      <point x="206" y="10" type="move" name="ogonek"/>
    </contour>
    <contour>
      <point x="138" y="699" type="move" name="top"/>
    </contour>
  </outline>
</glyph>
<glyph name="J" format="1">
  <advance width="459"/>
  <unicode hex="004A"/>
  <outline>
    <contour>
      <point x="67" y="699" type="line"/>
      <point x="67" y="679" type="line"/>
      <point x="329" y="679" type="line"/>
      <point x="329" y="197" type="line"/>
      <point x="329" y="82"/>
      <point x="275" y="20"/>
      <point x="177" y="20" type="curve"/>
      <point x="114" y="20"/>
      <point x="58" y="52"/>
      <point x="17" y="112" type="curve"/>
      <point x="3" y="98" type="line"/>
      <point x="47" y="35"/>
      <point x="109" y="0"/>
      <point x="177" y="0" type="curve"/>
      <point x="288" y="0"/>
      <point x="349" y="70"/>
      <point x="349" y="197" type="curve"/>
      <point x="349" y="699" type="line"/>
    </contour>
    <contour>
      <point x="204" y="699" type="move" name="top"/>
    </contour>
  </outline>
</glyph>
<glyph name="K" format="1">
  <advance width="670"/>
  <unicode hex="004B"/>
  <outline>
    <contour>
      <point x="590" y="699" type="line"/>
      <point x="148" y="220" type="line"/>
      <point x="148" y="699" type="line"/>
      <point x="128" y="699" type="line"/>
      <point x="128" y="0" type="line"/>
      <point x="148" y="0" type="line"/>
      <point x="148" y="191" type="line"/>
      <point x="618" y="699" type="line"/>
    </contour>
    <contour>
      <point x="308" y="376" type="line"/>
      <point x="613" y="0" type="line"/>
      <point x="640" y="0" type="line"/>
      <point x="320" y="394" type="line"/>
    </contour>
    <contour>
      <point x="335" y="699" type="move" name="top"/>
    </contour>
    <contour>
      <point x="335" y="0" type="move" name="bottom"/>
    </contour>
  </outline>
</glyph>
<glyph name="L" format="1">
  <advance width="491"/>
  <unicode hex="004C"/>
  <outline>
    <contour>
      <point x="128" y="699" type="line"/>
      <point x="128" y="0" type="line"/>
      <point x="461" y="0" type="line"/>
      <point x="461" y="20" type="line"/>
      <point x="148" y="20" type="line"/>
      <point x="148" y="699" type="line"/>
    </contour>
    <contour>
      <point x="148" y="699" type="move" name="top"/>
    </contour>
    <contour>
      <point x="288" y="0" type="move" name="bottom"/>
    </contour>
  </outline>
</glyph>
<glyph name="M" format="1">
  <advance width="914"/>
  <unicode hex="004D"/>
  <outline>
    <contour>
      <point x="751" y="699" type="line"/>
      <point x="458" y="120" type="line" smooth="yes"/>
      <point x="163" y="699" type="line"/>
      <point x="128" y="699" type="line"/>
      <point x="128" y="0" type="line"/>
      <point x="148" y="0" type="line"/>
      <point x="148" y="680" type="line"/>
      <point x="456" y="77" type="line"/>
      <point x="458" y="77" type="line"/>
      <point x="765" y="680" type="line"/>
      <point x="766" y="0" type="line"/>
      <point x="786" y="0" type="line"/>
      <point x="786" y="699" type="line"/>
    </contour>
  </outline>
</glyph>
<glyph name="N" format="1">
  <advance width="799"/>
  <unicode hex="004E"/>
  <outline>
    <contour>
      <point x="651" y="699" type="line"/>
      <point x="651" y="20" type="line"/>
      <point x="158" y="699" type="line"/>
      <point x="128" y="699" type="line"/>
      <point x="128" y="0" type="line"/>
      <point x="148" y="0" type="line"/>
      <point x="148" y="679" type="line"/>
      <point x="641" y="0" type="line"/>
      <point x="671" y="0" type="line"/>
      <point x="671" y="699" type="line"/>
    </contour>
    <contour>
      <point x="400" y="699" type="move" name="top"/>
    </contour>
    <contour>
      <point x="400" y="0" type="move" name="bottom"/>
    </contour>
  </outline>
</glyph>
<glyph name="O" format="1">
  <advance width="818"/>
  <unicode hex="004F"/>
  <outline>
    <contour>
      <point x="212" y="699"/>
      <point x="50" y="542"/>
      <point x="50" y="350" type="curve" smooth="yes"/>
      <point x="50" y="158"/>
      <point x="212" y="0"/>
      <point x="409" y="0" type="curve" smooth="yes"/>
      <point x="606" y="0"/>
      <point x="768" y="158"/>
      <point x="768" y="350" type="curve" smooth="yes"/>
      <point x="768" y="542"/>
      <point x="606" y="699"/>
      <point x="409" y="699" type="curve" smooth="yes"/>
    </contour>
    <contour>
      <point x="595" y="679"/>
      <point x="748" y="531"/>
      <point x="748" y="350" type="curve" smooth="yes"/>
      <point x="748" y="169"/>
      <point x="595" y="20"/>
      <point x="409" y="20" type="curve" smooth="yes"/>
      <point x="223" y="20"/>
      <point x="70" y="169"/>
      <point x="70" y="350" type="curve" smooth="yes"/>
      <point x="70" y="531"/>
      <point x="223" y="679"/>
      <point x="409" y="679" type="curve" smooth="yes"/>
    </contour>
    <contour>
      <point x="409" y="699" type="move" name="top"/>
    </contour>
  </outline>
</glyph>
<glyph name="Q" format="1">
  <advance width="839"/>
  <unicode hex="0051"/>
  <outline>
    <contour>
      <point x="429" y="3" type="line"/>
      <point x="508" y="-82"/>
      <point x="579" y="-124"/>
      <point x="648" y="-124" type="curve" smooth="yes"/>
      <point x="701" y="-124"/>
      <point x="754" y="-99"/>
      <point x="808" y="-48" type="curve"/>
      <point x="794" y="-34" type="line"/>
      <point x="744" y="-81"/>
      <point x="696" y="-105"/>
      <point x="648" y="-105" type="curve" smooth="yes"/>
      <point x="585" y="-105"/>
      <point x="520" y="-65"/>
      <point x="443" y="17" type="curve"/>
    </contour>
    <component base="O"/>
  </outline>
</glyph>
<glyph name="R" format="1">
  <advance width="722"/>
  <unicode hex="0052"/>
  <outline>
    <contour>
      <point x="128" y="699" type="line"/>
      <point x="128" y="0" type="line"/>
      <point x="148" y="0" type="line"/>
      <point x="148" y="240" type="line"/>
      <point x="365" y="240" type="line" smooth="yes"/>
      <point x="535" y="240"/>
      <point x="632" y="325"/>
      <point x="632" y="472" type="curve" smooth="yes"/>
      <point x="632" y="616"/>
      <point x="535" y="699"/>
      <point x="365" y="699" type="curve" smooth="yes"/>
    </contour>
    <contour>
      <point x="422" y="254" type="line"/>
      <point x="607" y="0" type="line"/>
      <point x="632" y="0" type="line"/>
      <point x="447" y="254" type="line"/>
    </contour>
    <contour>
      <point x="522" y="679"/>
      <point x="612" y="604"/>
      <point x="612" y="472" type="curve" smooth="yes"/>
      <point x="612" y="337"/>
      <point x="522" y="260"/>
      <point x="365" y="260" type="curve" smooth="yes"/>
      <point x="148" y="260" type="line"/>
      <point x="148" y="679" type="line"/>
      <point x="365" y="679" type="line" smooth="yes"/>
    </contour>
    <contour>
      <point x="341" y="699" type="move" name="top"/>
    </contour>
    <contour>
      <point x="361" y="0" type="move" name="bottom"/>
    </contour>
  </outline>
</glyph>
<glyph name="S" format="1">
  <advance width="593"/>
  <unicode hex="0053"/>
  <outline>
    <contour>
      <point x="167" y="699"/>
      <point x="79" y="638"/>
      <point x="79" y="544" type="curve"/>
      <point x="79" y="290"/>
      <point x="499" y="410"/>
      <point x="497" y="170" type="curve"/>
      <point x="497" y="79"/>
      <point x="412" y="20"/>
      <point x="280" y="20" type="curve"/>
      <point x="196" y="20"/>
      <point x="108" y="56"/>
      <point x="55" y="112" type="curve"/>
      <point x="41" y="98" type="line"/>
      <point x="99" y="39"/>
      <point x="192" y="0"/>
      <point x="280" y="0" type="curve"/>
      <point x="424" y="0"/>
      <point x="517" y="67"/>
      <point x="517" y="170" type="curve"/>
      <point x="519" y="430"/>
      <point x="99" y="310"/>
      <point x="99" y="544" type="curve"/>
      <point x="99" y="626"/>
      <point x="179" y="679"/>
      <point x="302" y="679" type="curve"/>
      <point x="364" y="679"/>
      <point x="433" y="661"/>
      <point x="478" y="632" type="curve"/>
      <point x="488" y="648" type="line"/>
      <point x="440" y="679"/>
      <point x="367" y="699"/>
      <point x="302" y="699" type="curve"/>
    </contour>
    <contour>
      <point x="287" y="699" type="move" name="top"/>
    </contour>
    <contour>
      <point x="297" y="0" type="move" name="bottom"/>
    </contour>
  </outline>
</glyph>
<glyph name="T" format="1">
  <advance width="526"/>
  <unicode hex="0054"/>
  <outline>
    <contour>
      <point x="13" y="699" type="line"/>
      <point x="13" y="679" type="line"/>
      <point x="253" y="679" type="line"/>
      <point x="253" y="0" type="line"/>
      <point x="273" y="0" type="line"/>
      <point x="273" y="679" type="line"/>
      <point x="513" y="679" type="line"/>
      <point x="513" y="699" type="line"/>
    </contour>
    <contour>
      <point x="263" y="350" type="move" name="center"/>
    </contour>
    <contour>
      <point x="248" y="0" type="move" name="bottom"/>
    </contour>
    <contour>
      <point x="263" y="699" type="move" name="top"/>
    </contour>
  </outline>
</glyph>
<glyph name="U" format="1">
  <advance width="774"/>
  <unicode hex="0055"/>
  <outline>
    <contour>
      <point x="644" y="699" type="line"/>
      <point x="644" y="284" type="line"/>
      <point x="644" y="116"/>
      <point x="550" y="20"/>
      <point x="387" y="20" type="curve"/>
      <point x="224" y="20"/>
      <point x="130" y="116"/>
      <point x="130" y="284" type="curve"/>
      <point x="130" y="699" type="line"/>
      <point x="110" y="699" type="line"/>
      <point x="110" y="284" type="line"/>
      <point x="110" y="103"/>
      <point x="211" y="0"/>
      <point x="387" y="0" type="curve"/>
      <point x="563" y="0"/>
      <point x="664" y="103"/>
      <point x="664" y="284" type="curve"/>
      <point x="664" y="699" type="line"/>
    </contour>
    <contour>
      <point x="527" y="10" type="move" name="ogonek"/>
    </contour>
    <contour>
      <point x="387" y="699" type="move" name="top"/>
    </contour>
  </outline>
</glyph>
<glyph name="V" format="1">
  <advance width="626"/>
  <unicode hex="0056"/>
  <outline>
    <contour>
      <point x="592" y="699" type="line"/>
      <point x="313" y="23" type="line"/>
      <point x="33" y="699" type="line"/>
      <point x="10" y="699" type="line"/>
      <point x="302" y="0" type="line"/>
      <point x="324" y="0" type="line"/>
      <point x="616" y="699" type="line"/>
    </contour>
  </outline>
</glyph>
<glyph name="W" format="1">
  <advance width="987"/>
  <unicode hex="0057"/>
  <outline>
    <contour>
      <point x="954" y="699" type="line"/>
      <point x="730" y="23" type="line"/>
      <point x="505" y="699" type="line"/>
      <point x="482" y="699" type="line"/>
      <point x="258" y="23" type="line"/>
      <point x="33" y="699" type="line"/>
      <point x="10" y="699" type="line"/>
      <point x="247" y="0" type="line"/>
      <point x="268" y="0" type="line"/>
      <point x="494" y="671" type="line"/>
      <point x="719" y="0" type="line"/>
      <point x="740" y="0" type="line"/>
      <point x="977" y="699" type="line"/>
    </contour>
    <contour>
      <point x="394" y="699" type="move" name="top"/>
    </contour>
  </outline>
</glyph>
<glyph name="X" format="1">
  <advance width="623"/>
  <unicode hex="0058"/>
  <outline>
    <contour>
      <point x="537" y="699" type="line"/>
      <point x="306" y="379" type="line"/>
      <point x="76" y="699" type="line"/>
      <point x="52" y="699" type="line"/>
      <point x="294" y="362" type="line"/>
      <point x="33" y="0" type="line"/>
      <point x="57" y="0" type="line"/>
      <point x="306" y="346" type="line"/>
      <point x="556" y="0" type="line"/>
      <point x="580" y="0" type="line"/>
      <point x="318" y="362" type="line"/>
      <point x="561" y="699" type="line"/>
    </contour>
  </outline>
</glyph>
<glyph name="Y" format="1">
  <advance width="606"/>
  <unicode hex="0059"/>
  <outline>
    <contour>
      <point x="572" y="699" type="line"/>
      <point x="305" y="289" type="line"/>
      <point x="34" y="699" type="line"/>
      <point x="10" y="699" type="line"/>
      <point x="302" y="258" type="line"/>
      <point x="308" y="258" type="line"/>
      <point x="596" y="699" type="line"/>
    </contour>
    <contour>
      <point x="295" y="277" type="line"/>
      <point x="295" y="0" type="line"/>
      <point x="315" y="0" type="line"/>
      <point x="315" y="277" type="line"/>
    </contour>
    <contour>
      <point x="303" y="699" type="move" name="top"/>
    </contour>
  </outline>
</glyph>
<glyph name="Z" format="1">
  <advance width="650"/>
  <unicode hex="005A"/>
  <outline>
    <contour>
      <point x="66" y="699" type="line"/>
      <point x="66" y="679" type="line"/>
      <point x="575" y="679" type="line"/>
      <point x="52" y="25" type="line"/>
      <point x="52" y="0" type="line"/>
      <point x="598" y="0" type="line"/>
      <point x="598" y="20" type="line"/>
      <point x="72" y="20" type="line"/>
      <point x="595" y="674" type="line"/>
      <point x="595" y="699" type="line"/>
    </contour>
    <contour>
      <point x="325" y="699" type="move" name="top"/>
    </contour>
  </outline>
</glyph>
<glyph name="bracketleft" format="1">
  <advance width="317"/>
  <unicode hex="005B"/>
  <outline>
    <contour>
      <point x="128" y="742" type="line"/>
      <point x="128" y="-124" type="line"/>
      <point x="277" y="-124" type="line"/>
      <point x="277" y="-104" type="line"/>
      <point x="148" y="-104" type="line"/>
      <point x="148" y="722" type="line"/>
      <point x="277" y="722" type="line"/>
      <point x="277" y="742" type="line"/>
    </contour>
  </outline>
</glyph>
<glyph name="grave" format="1">
  <advance width="350"/>
  <unicode hex="0060"/>
  <outline>
    <contour>
      <point x="95" y="729" type="line"/>
      <point x="224" y="624" type="line"/>
      <point x="256" y="624" type="line"/>
      <point x="114" y="739" type="line"/>
    </contour>
    <contour>
      <point x="224" y="517" type="move" name="_top"/>
    </contour>
  </outline>
</glyph>
<glyph name="b" format="1">
  <advance width="669"/>
  <unicode hex="0062"/>
  <outline>
    <contour>
      <point x="115" y="742" type="line"/>
      <point x="115" y="0" type="line"/>
      <point x="135" y="0" type="line"/>
      <point x="135" y="742" type="line"/>
    </contour>
    <contour>
      <point x="221" y="517"/>
      <point x="115" y="408"/>
      <point x="115" y="258" type="curve"/>
      <point x="115" y="109"/>
      <point x="221" y="0"/>
      <point x="366" y="0" type="curve" smooth="yes"/>
      <point x="511" y="0"/>
      <point x="617" y="109"/>
      <point x="617" y="258" type="curve" smooth="yes"/>
      <point x="617" y="408"/>
      <point x="511" y="517"/>
      <point x="366" y="517" type="curve" smooth="yes"/>
    </contour>
    <contour>
      <point x="500" y="497"/>
      <point x="597" y="396"/>
      <point x="597" y="258" type="curve" smooth="yes"/>
      <point x="597" y="120"/>
      <point x="500" y="20"/>
      <point x="366" y="20" type="curve" smooth="yes"/>
      <point x="232" y="20"/>
      <point x="135" y="120"/>
      <point x="135" y="258" type="curve" smooth="yes"/>
      <point x="135" y="396"/>
      <point x="232" y="497"/>
      <point x="366" y="497" type="curve" smooth="yes"/>
    </contour>
  </outline>
</glyph>
<glyph name="d" format="1">
  <advance width="673"/>
  <unicode hex="0064"/>
  <outline>
    <contour>
      <point x="416" y="264" type="move"/>
    </contour>
    <contour>
      <point x="159" y="519"/>
      <point x="52" y="409"/>
      <point x="52" y="258" type="curve" smooth="yes"/>
      <point x="52" y="108"/>
      <point x="159" y="-2"/>
      <point x="305" y="-2" type="curve" smooth="yes"/>
      <point x="451" y="-2"/>
      <point x="558" y="108"/>
      <point x="558" y="258" type="curve"/>
      <point x="558" y="409"/>
      <point x="451" y="519"/>
      <point x="305" y="519" type="curve" smooth="yes"/>
    </contour>
    <contour>
      <point x="440" y="499"/>
      <point x="538" y="397"/>
      <point x="538" y="258" type="curve" smooth="yes"/>
      <point x="538" y="119"/>
      <point x="440" y="18"/>
      <point x="305" y="18" type="curve" smooth="yes"/>
      <point x="170" y="18"/>
      <point x="72" y="119"/>
      <point x="72" y="258" type="curve" smooth="yes"/>
      <point x="72" y="397"/>
      <point x="170" y="499"/>
      <point x="305" y="499" type="curve" smooth="yes"/>
    </contour>
    <contour>
      <point x="538" y="742" type="line"/>
      <point x="538" y="0" type="line"/>
      <point x="558" y="0" type="line"/>
      <point x="558" y="742" type="line"/>
    </contour>
    <contour>
      <point x="-7" y="0" type="move" name="center"/>
    </contour>
  </outline>
</glyph>
<glyph name="g" format="1">
  <advance width="630"/>
  <unicode hex="0067"/>
  <outline>
    <contour>
      <point x="516" y="517" type="line"/>
      <point x="516" y="59" type="line"/>
      <point x="516" y="-83"/>
      <point x="427" y="-174"/>
      <point x="290" y="-173" type="curve" smooth="yes"/>
      <point x="212" y="-170"/>
      <point x="151" y="-144"/>
      <point x="96" y="-89" type="curve"/>
      <point x="82" y="-103" type="line"/>
      <point x="142" y="-162"/>
      <point x="207" y="-190"/>
      <point x="290" y="-193" type="curve" smooth="yes"/>
      <point x="439" y="-194"/>
      <point x="536" y="-95"/>
      <point x="536" y="59" type="curve"/>
      <point x="536" y="517" type="line"/>
    </contour>
    <contour>
      <point x="154" y="517"/>
      <point x="52" y="412"/>
      <point x="52" y="267" type="curve" smooth="yes"/>
      <point x="52" y="124"/>
      <point x="154" y="19"/>
      <point x="293" y="19" type="curve" smooth="yes"/>
      <point x="433" y="19"/>
      <point x="535" y="124"/>
      <point x="535" y="267" type="curve"/>
      <point x="535" y="412"/>
      <point x="433" y="517"/>
      <point x="293" y="517" type="curve" smooth="yes"/>
    </contour>
    <contour>
      <point x="422" y="498"/>
      <point x="516" y="400"/>
      <point x="516" y="267" type="curve" smooth="yes"/>
      <point x="516" y="135"/>
      <point x="422" y="38"/>
      <point x="293" y="38" type="curve" smooth="yes"/>
      <point x="164" y="38"/>
      <point x="71" y="135"/>
      <point x="71" y="267" type="curve" smooth="yes"/>
      <point x="71" y="400"/>
      <point x="164" y="498"/>
      <point x="293" y="498" type="curve" smooth="yes"/>
    </contour>
    <contour>
      <point x="315" y="517" type="move" name="top"/>
    </contour>
  </outline>
</glyph>
<glyph name="h" format="1">
  <advance width="650"/>
  <unicode hex="0068"/>
  <outline>
    <contour>
      <point x="115" y="742" type="line"/>
      <point x="115" y="0" type="line"/>
      <point x="135" y="0" type="line"/>
      <point x="135" y="742" type="line"/>
    </contour>
    <contour>
      <point x="205" y="514"/>
      <point x="117" y="416"/>
      <point x="117" y="253" type="curve"/>
      <point x="135" y="253" type="line"/>
      <point x="135" y="403"/>
      <point x="216" y="494"/>
      <point x="354" y="497" type="curve"/>
      <point x="469" y="497"/>
      <point x="537" y="429"/>
      <point x="537" y="313" type="curve"/>
      <point x="537" y="0" type="line" smooth="yes"/>
      <point x="557" y="0" type="line"/>
      <point x="557" y="313" type="line"/>
      <point x="557" y="441"/>
      <point x="482" y="517"/>
      <point x="354" y="517" type="curve"/>
    </contour>
    <contour>
      <point x="327" y="259" type="move" name="center"/>
    </contour>
    <contour>
      <point x="327" y="517" type="move" name="top"/>
    </contour>
    <contour>
      <point x="223" y="517" type="move" name="topright"/>
    </contour>
    <contour>
      <point x="570" y="0" type="move" name="bottom"/>
    </contour>
  </outline>
</glyph>
<glyph name="j" format="1">
  <advance width="235"/>
  <unicode hex="006A"/>
  <outline>
    <contour>
      <point x="105" y="517" type="line"/>
      <point x="105" y="-31" type="line"/>
      <point x="105" y="-125"/>
      <point x="72" y="-174"/>
      <point x="9" y="-173" type="curve"/>
      <point x="-23" y="-172"/>
      <point x="-55" y="-161"/>
      <point x="-81" y="-140" type="curve"/>
      <point x="-93" y="-156" type="line"/>
      <point x="-63" y="-179"/>
      <point x="-28" y="-192"/>
      <point x="9" y="-193" type="curve"/>
      <point x="85" y="-194"/>
      <point x="125" y="-139"/>
      <point x="125" y="-31" type="curve"/>
      <point x="125" y="517" type="line"/>
    </contour>
    <contour>
      <point x="101" y="692"/>
      <point x="89" y="680"/>
      <point x="89" y="666" type="curve" smooth="yes"/>
      <point x="89" y="652"/>
      <point x="101" y="640"/>
      <point x="115" y="640" type="curve" smooth="yes"/>
      <point x="129" y="640"/>
      <point x="141" y="652"/>
      <point x="141" y="666" type="curve" smooth="yes"/>
      <point x="141" y="680"/>
      <point x="129" y="692"/>
      <point x="115" y="692" type="curve" smooth="yes"/>
    </contour>
  </outline>
</glyph>
<glyph name="k" format="1">
  <advance width="538"/>
  <unicode hex="006B"/>
  <outline>
    <contour>
      <point x="230" y="111" type="move"/>
    </contour>
    <contour>
      <point x="115" y="742" type="line"/>
      <point x="115" y="0" type="line"/>
      <point x="135" y="0" type="line"/>
      <point x="135" y="742" type="line"/>
    </contour>
    <contour>
      <point x="464" y="517" type="line"/>
      <point x="128" y="178" type="line"/>
      <point x="128" y="147" type="line"/>
      <point x="492" y="517" type="line"/>
    </contour>
    <contour>
      <point x="272" y="314" type="line"/>
      <point x="498" y="0" type="line"/>
      <point x="522" y="0" type="line"/>
      <point x="288" y="326" type="line"/>
    </contour>
    <contour>
      <point x="125" y="742" type="move" name="top"/>
    </contour>
    <contour>
      <point x="105" y="0" type="move" name="bottom"/>
    </contour>
    <contour>
      <point x="223" y="517" type="move" name="topright"/>
    </contour>
  </outline>
</glyph>
<glyph name="n" format="1">
  <advance width="644"/>
  <unicode hex="006E"/>
  <outline>
    <contour>
      <point x="110" y="517" type="line"/>
      <point x="110" y="0" type="line"/>
      <point x="130" y="0" type="line"/>
      <point x="130" y="517" type="line"/>
    </contour>
    <contour>
      <point x="199" y="514"/>
      <point x="111" y="416"/>
      <point x="111" y="253" type="curve"/>
      <point x="129" y="253" type="line"/>
      <point x="129" y="403"/>
      <point x="210" y="494"/>
      <point x="348" y="497" type="curve"/>
      <point x="463" y="497"/>
      <point x="531" y="429"/>
      <point x="531" y="313" type="curve"/>
      <point x="531" y="0" type="line" smooth="yes"/>
      <point x="551" y="0" type="line"/>
      <point x="551" y="313" type="line"/>
      <point x="551" y="441"/>
      <point x="476" y="517"/>
      <point x="348" y="517" type="curve"/>
    </contour>
    <contour>
      <point x="332" y="517" type="move" name="top"/>
    </contour>
    <contour>
      <point x="325" y="0" type="move" name="bottom"/>
    </contour>
  </outline>
</glyph>
<glyph name="o" format="1">
  <advance width="606"/>
  <unicode hex="006F"/>
  <outline>
    <contour>
      <point x="159" y="517"/>
      <point x="52" y="409"/>
      <point x="52" y="259" type="curve" smooth="yes"/>
      <point x="52" y="108"/>
      <point x="159" y="0"/>
      <point x="303" y="0" type="curve" smooth="yes"/>
      <point x="447" y="0"/>
      <point x="554" y="108"/>
      <point x="554" y="259" type="curve" smooth="yes"/>
      <point x="554" y="409"/>
      <point x="447" y="517"/>
      <point x="303" y="517" type="curve" smooth="yes"/>
    </contour>
    <contour>
      <point x="437" y="497"/>
      <point x="534" y="399"/>
      <point x="534" y="259" type="curve" smooth="yes"/>
      <point x="534" y="118"/>
      <point x="437" y="20"/>
      <point x="303" y="20" type="curve" smooth="yes"/>
      <point x="169" y="20"/>
      <point x="72" y="118"/>
      <point x="72" y="259" type="curve" smooth="yes"/>
      <point x="72" y="399"/>
      <point x="169" y="497"/>
      <point x="303" y="497" type="curve" smooth="yes"/>
    </contour>
    <contour>
      <point x="303" y="517" type="move" name="top"/>
    </contour>
  </outline>
</glyph>
<glyph name="p" format="1">
  <advance width="669"/>
  <unicode hex="0070"/>
  <outline>
    <contour>
      <point x="115" y="517" type="line"/>
      <point x="115" y="-194" type="line"/>
      <point x="135" y="-194" type="line"/>
      <point x="135" y="517" type="line"/>
    </contour>
    <contour>
      <point x="145" y="36" type="move"/>
    </contour>
    <contour>
      <point x="221" y="517"/>
      <point x="115" y="408"/>
      <point x="115" y="258" type="curve"/>
      <point x="115" y="109"/>
      <point x="221" y="0"/>
      <point x="366" y="0" type="curve" smooth="yes"/>
      <point x="511" y="0"/>
      <point x="617" y="109"/>
      <point x="617" y="258" type="curve" smooth="yes"/>
      <point x="617" y="408"/>
      <point x="511" y="517"/>
      <point x="366" y="517" type="curve" smooth="yes"/>
    </contour>
    <contour>
      <point x="500" y="497"/>
      <point x="597" y="396"/>
      <point x="597" y="258" type="curve" smooth="yes"/>
      <point x="597" y="120"/>
      <point x="500" y="20"/>
      <point x="366" y="20" type="curve" smooth="yes"/>
      <point x="232" y="20"/>
      <point x="135" y="120"/>
      <point x="135" y="258" type="curve" smooth="yes"/>
      <point x="135" y="396"/>
      <point x="232" y="497"/>
      <point x="366" y="497" type="curve" smooth="yes"/>
    </contour>
  </outline>
</glyph>
<glyph name="r" format="1">
  <advance width="338"/>
  <unicode hex="0072"/>
  <outline>
    <contour>
      <point x="110" y="517" type="line"/>
      <point x="110" y="0" type="line"/>
      <point x="130" y="0" type="line"/>
      <point x="130" y="517" type="line"/>
    </contour>
    <contour>
      <point x="191" y="514"/>
      <point x="111" y="416"/>
      <point x="111" y="253" type="curve"/>
      <point x="129" y="253" type="line"/>
      <point x="129" y="403"/>
      <point x="202" y="494"/>
      <point x="328" y="497" type="curve"/>
      <point x="328" y="517" type="line"/>
    </contour>
    <contour>
      <point x="166" y="517" type="move" name="top"/>
    </contour>
    <contour>
      <point x="120" y="0" type="move" name="bottom"/>
    </contour>
  </outline>
</glyph>
<glyph name="t" format="1">
  <advance width="362"/>
  <unicode hex="0074"/>
  <outline>
    <contour>
      <point x="126" y="630" type="line"/>
      <point x="126" y="142" type="line"/>
      <point x="126" y="48"/>
      <point x="164" y="-1"/>
      <point x="236" y="0" type="curve"/>
      <point x="273" y="1"/>
      <point x="308" y="14"/>
      <point x="338" y="37" type="curve"/>
      <point x="326" y="53" type="line"/>
      <point x="300" y="32"/>
      <point x="268" y="21"/>
      <point x="236" y="20" type="curve"/>
      <point x="177" y="19"/>
      <point x="146" y="62"/>
      <point x="146" y="142" type="curve"/>
      <point x="146" y="630" type="line"/>
    </contour>
    <contour>
      <point x="50" y="507" type="line"/>
      <point x="50" y="487" type="line"/>
      <point x="328" y="487" type="line"/>
      <point x="328" y="507" type="line"/>
    </contour>
    <contour>
      <point x="181" y="259" type="move" name="center"/>
    </contour>
    <contour>
      <point x="221" y="0" type="move" name="bottom"/>
    </contour>
  </outline>
</glyph>
<glyph name="u" format="1">
  <advance width="637"/>
  <unicode hex="0075"/>
  <outline>
    <contour>
      <point x="527" y="0" type="line"/>
      <point x="527" y="517" type="line"/>
      <point x="507" y="517" type="line"/>
      <point x="507" y="0" type="line"/>
    </contour>
    <contour>
      <point x="438" y="3"/>
      <point x="524" y="101"/>
      <point x="524" y="264" type="curve"/>
      <point x="507" y="264" type="line"/>
      <point x="507" y="114"/>
      <point x="427" y="23"/>
      <point x="292" y="20" type="curve"/>
      <point x="179" y="20"/>
      <point x="112" y="88"/>
      <point x="112" y="204" type="curve"/>
      <point x="112" y="517" type="line" smooth="yes"/>
      <point x="92" y="517" type="line"/>
      <point x="92" y="204" type="line"/>
      <point x="92" y="76"/>
      <point x="166" y="0"/>
      <point x="292" y="0" type="curve"/>
    </contour>
    <contour>
      <point x="567" y="10" type="move" name="ogonek"/>
    </contour>
    <contour>
      <point x="316" y="517" type="move" name="top"/>
    </contour>
  </outline>
</glyph>
<glyph name="w" format="1">
  <advance width="818"/>
  <unicode hex="0077"/>
  <outline>
    <contour>
      <point x="795" y="517" type="line"/>
      <point x="611" y="23" type="line"/>
      <point x="426" y="517" type="line"/>
      <point x="402" y="517" type="line"/>
      <point x="219" y="23" type="line"/>
      <point x="34" y="517" type="line"/>
      <point x="10" y="517" type="line"/>
      <point x="207" y="0" type="line"/>
      <point x="229" y="0" type="line"/>
      <point x="415" y="489" type="line"/>
      <point x="599" y="0" type="line"/>
      <point x="621" y="0" type="line"/>
      <point x="818" y="517" type="line"/>
    </contour>
    <contour>
      <point x="409" y="517" type="move" name="top"/>
    </contour>
  </outline>
</glyph>
<glyph name="x" format="1">
  <advance width="489"/>
  <unicode hex="0078"/>
  <outline>
    <contour>
      <point x="46" y="517" type="line"/>
      <point x="230" y="268" type="line"/>
      <point x="31" y="0" type="line"/>
      <point x="56" y="0" type="line"/>
      <point x="242" y="251" type="line"/>
      <point x="429" y="0" type="line"/>
      <point x="454" y="0" type="line"/>
      <point x="255" y="268" type="line"/>
      <point x="440" y="517" type="line"/>
      <point x="416" y="517" type="line"/>
      <point x="243" y="284" type="line"/>
      <point x="70" y="517" type="line"/>
    </contour>
  </outline>
</glyph>
<glyph name="y" format="1">
  <advance width="456"/>
  <unicode hex="0079"/>
  <outline>
    <contour>
      <point x="432" y="517" type="line"/>
      <point x="234" y="23" type="line"/>
      <point x="33" y="517" type="line"/>
      <point x="10" y="517" type="line"/>
      <point x="224" y="-2" type="line"/>
      <point x="198" y="-68" type="line" smooth="yes"/>
      <point x="171" y="-136"/>
      <point x="128" y="-174"/>
      <point x="77" y="-174" type="curve" smooth="yes"/>
      <point x="47" y="-174"/>
      <point x="18" y="-166"/>
      <point x="-4" y="-151" type="curve"/>
      <point x="-13" y="-168" type="line"/>
      <point x="11" y="-185"/>
      <point x="43" y="-194"/>
      <point x="79" y="-194" type="curve" smooth="yes"/>
      <point x="134" y="-194"/>
      <point x="182" y="-152"/>
      <point x="214" y="-75" type="curve" smooth="yes"/>
      <point x="456" y="517" type="line"/>
    </contour>
    <contour>
      <point x="233" y="517" type="move" name="top"/>
    </contour>
  </outline>
</glyph>
<glyph name="z" format="1">
  <advance width="510"/>
  <unicode hex="007A"/>
  <outline>
    <contour>
      <point x="71" y="517" type="line"/>
      <point x="71" y="497" type="line"/>
      <point x="432" y="496" type="line"/>
      <point x="62" y="25" type="line"/>
      <point x="62" y="0" type="line"/>
      <point x="459" y="-1" type="line"/>
      <point x="459" y="19" type="line"/>
      <point x="82" y="20" type="line"/>
      <point x="452" y="491" type="line"/>
      <point x="452" y="516" type="line"/>
    </contour>
    <contour>
      <point x="255" y="517" type="move" name="top"/>
    </contour>
  </outline>
</glyph>
<glyph name="braceleft" format="1">
  <advance width="284"/>
  <unicode hex="007B"/>
  <outline>
    <contour>
      <point x="251" y="742" type="line" smooth="yes"/>
      <point x="167" y="742"/>
      <point x="128" y="710"/>
      <point x="128" y="640" type="curve" smooth="yes"/>
      <point x="128" y="390" type="line" smooth="yes"/>
      <point x="128" y="341"/>
      <point x="110" y="318"/>
      <point x="73" y="318" type="curve" smooth="yes"/>
      <point x="54" y="318" type="line"/>
      <point x="54" y="298" type="line"/>
      <point x="73" y="298" type="line"/>
      <point x="102" y="306" type="line" smooth="yes"/>
      <point x="135" y="315"/>
      <point x="148" y="340"/>
      <point x="148" y="390" type="curve" smooth="yes"/>
      <point x="148" y="640" type="line" smooth="yes"/>
      <point x="148" y="696"/>
      <point x="182" y="722"/>
      <point x="256" y="722" type="curve"/>
      <point x="256" y="742" type="line"/>
    </contour>
    <contour>
      <point x="54" y="318" type="line"/>
      <point x="54" y="298" type="line"/>
      <point x="73" y="298" type="line" smooth="yes"/>
      <point x="110" y="298"/>
      <point x="128" y="275"/>
      <point x="128" y="226" type="curve" smooth="yes"/>
      <point x="128" y="-24" type="line" smooth="yes"/>
      <point x="128" y="-94"/>
      <point x="167" y="-126"/>
      <point x="251" y="-126" type="curve" smooth="yes"/>
      <point x="256" y="-126" type="line"/>
      <point x="256" y="-106" type="line"/>
      <point x="182" y="-106"/>
      <point x="148" y="-80"/>
      <point x="148" y="-24" type="curve" smooth="yes"/>
      <point x="148" y="226" type="line" smooth="yes"/>
      <point x="148" y="276"/>
      <point x="135" y="301"/>
      <point x="102" y="310" type="curve" smooth="yes"/>
      <point x="73" y="318" type="line"/>
    </contour>
  </outline>
</glyph>
<glyph name="bar" format="1">
  <advance width="220"/>
  <unicode hex="007C"/>
  <outline>
    <contour>
      <point x="100" y="824" type="line"/>
      <point x="100" y="-129" type="line"/>
      <point x="120" y="-129" type="line"/>
      <point x="120" y="824" type="line"/>
    </contour>
  </outline>
</glyph>
<glyph name="asciitilde" format="1">
  <advance width="480"/>
  <unicode hex="007E"/>
  <outline>
    <contour>
      <point x="109" y="360"/>
      <point x="83" y="330"/>
      <point x="83" y="280" type="curve"/>
      <point x="103" y="280" type="line"/>
      <point x="103" y="318"/>
      <point x="121" y="340"/>
      <point x="153" y="340" type="curve" smooth="yes"/>
      <point x="207" y="340"/>
      <point x="261" y="270"/>
      <point x="328" y="270" type="curve" smooth="yes"/>
      <point x="372" y="270"/>
      <point x="398" y="300"/>
      <point x="398" y="350" type="curve"/>
      <point x="378" y="350" type="line"/>
      <point x="378" y="312"/>
      <point x="360" y="290"/>
      <point x="328" y="290" type="curve" smooth="yes"/>
      <point x="275" y="290"/>
      <point x="212" y="360"/>
      <point x="153" y="360" type="curve" smooth="yes"/>
    </contour>
  </outline>
</glyph>
<glyph name="cent" format="1">
  <advance width="557"/>
  <unicode hex="00A2"/>
  <outline>
    <contour>
      <point x="284" y="454" type="line"/>
      <point x="284" y="-119" type="line"/>
      <point x="304" y="-119" type="line"/>
      <point x="304" y="454" type="line"/>
    </contour>
    <contour>
      <point x="284" y="654" type="line"/>
      <point x="284" y="-29" type="line"/>
      <point x="304" y="-29" type="line"/>
      <point x="304" y="654" type="line"/>
    </contour>
    <component base="c"/>
  </outline>
</glyph>
<glyph name="sterling" format="1">
  <advance width="532"/>
  <unicode hex="00A3"/>
  <outline>
    <contour>
      <point x="482" y="0" type="line"/>
      <point x="482" y="20" type="line"/>
      <point x="166" y="20" type="line"/>
      <point x="166" y="502" type="line"/>
      <point x="166" y="617"/>
      <point x="220" y="679"/>
      <point x="318" y="679" type="curve"/>
      <point x="381" y="679"/>
      <point x="437" y="647"/>
      <point x="478" y="587" type="curve"/>
      <point x="492" y="601" type="line"/>
      <point x="448" y="664"/>
      <point x="386" y="699"/>
      <point x="318" y="699" type="curve"/>
      <point x="207" y="699"/>
      <point x="146" y="629"/>
      <point x="146" y="502" type="curve"/>
      <point x="146" y="0" type="line"/>
    </contour>
    <contour>
      <point x="52" y="0" type="line"/>
      <point x="217" y="0" type="line"/>
      <point x="217" y="20" type="line"/>
      <point x="52" y="20" type="line"/>
    </contour>
    <contour>
      <point x="52" y="330" type="line"/>
      <point x="357" y="330" type="line"/>
      <point x="357" y="350" type="line"/>
      <point x="52" y="350" type="line"/>
    </contour>
  </outline>
</glyph>
<glyph name="yen" format="1">
  <advance width="606"/>
  <unicode hex="00A5"/>
  <outline>
    <contour>
      <point x="83" y="289" type="line"/>
      <point x="83" y="269" type="line"/>
      <point x="523" y="269" type="line"/>
      <point x="523" y="289" type="line"/>
    </contour>
    <contour>
      <point x="83" y="149" type="line"/>
      <point x="83" y="129" type="line"/>
      <point x="523" y="129" type="line"/>
      <point x="523" y="149" type="line"/>
    </contour>
    <contour>
      <point x="572" y="699" type="line"/>
      <point x="305" y="289" type="line"/>
      <point x="34" y="699" type="line"/>
      <point x="10" y="699" type="line"/>
      <point x="302" y="258" type="line"/>
      <point x="308" y="258" type="line"/>
      <point x="596" y="699" type="line"/>
    </contour>
    <contour>
      <point x="295" y="277" type="line"/>
      <point x="295" y="0" type="line"/>
      <point x="315" y="0" type="line"/>
      <point x="315" y="277" type="line"/>
    </contour>
  </outline>
</glyph>
<glyph name="brokenbar" format="1">
  <advance width="220"/>
  <unicode hex="00A6"/>
  <outline>
    <contour>
      <point x="100" y="224" type="line"/>
      <point x="100" y="-129" type="line"/>
      <point x="120" y="-129" type="line"/>
      <point x="120" y="224" type="line"/>
    </contour>
    <contour>
      <point x="100" y="824" type="line"/>
      <point x="100" y="471" type="line"/>
      <point x="120" y="471" type="line"/>
      <point x="120" y="824" type="line"/>
    </contour>
  </outline>
</glyph>
<glyph name="section" format="1">
  <advance width="429"/>
  <unicode hex="00A7"/>
  <outline>
    <contour>
      <point x="128" y="694"/>
      <point x="60" y="649"/>
      <point x="60" y="571" type="curve" smooth="yes"/>
      <point x="60" y="511"/>
      <point x="101" y="468"/>
      <point x="205" y="436" type="curve"/>
      <point x="114" y="429"/>
      <point x="58" y="387"/>
      <point x="58" y="314" type="curve" smooth="yes"/>
      <point x="58" y="140"/>
      <point x="371" y="206"/>
      <point x="371" y="54" type="curve" smooth="yes"/>
      <point x="371" y="-20"/>
      <point x="298" y="-60"/>
      <point x="213" y="-60" type="curve" smooth="yes"/>
      <point x="147" y="-60"/>
      <point x="87" y="-36"/>
      <point x="43" y="7" type="curve"/>
      <point x="29" y="-7" type="line"/>
      <point x="71" y="-50"/>
      <point x="137" y="-80"/>
      <point x="215" y="-80" type="curve" smooth="yes"/>
      <point x="315" y="-80"/>
      <point x="390" y="-30"/>
      <point x="390" y="53" type="curve" smooth="yes"/>
      <point x="390" y="111"/>
      <point x="353" y="155"/>
      <point x="270" y="182" type="curve"/>
      <point x="324" y="188"/>
      <point x="392" y="234"/>
      <point x="392" y="314" type="curve" smooth="yes"/>
      <point x="392" y="486"/>
      <point x="79" y="419"/>
      <point x="79" y="572" type="curve" smooth="yes"/>
      <point x="79" y="638"/>
      <point x="138" y="674"/>
      <point x="225" y="674" type="curve" smooth="yes"/>
      <point x="276" y="674"/>
      <point x="320" y="662"/>
      <point x="352" y="640" type="curve"/>
      <point x="364" y="655" type="line"/>
      <point x="324" y="681"/>
      <point x="277" y="694"/>
      <point x="225" y="694" type="curve" smooth="yes"/>
    </contour>
    <contour>
      <point x="318" y="417"/>
      <point x="373" y="373"/>
      <point x="373" y="310" type="curve" smooth="yes"/>
      <point x="373" y="243"/>
      <point x="312" y="197"/>
      <point x="239" y="197" type="curve" smooth="yes"/>
      <point x="156" y="197"/>
      <point x="77" y="256"/>
      <point x="77" y="321" type="curve" smooth="yes"/>
      <point x="77" y="378"/>
      <point x="136" y="417"/>
      <point x="224" y="417" type="curve" smooth="yes"/>
    </contour>
  </outline>
</glyph>
<glyph name="dieresis" format="1">
  <advance width="350"/>
  <unicode hex="00A8"/>
  <outline>
    <component base="dotaccent" xOffset="75"/>
    <component base="dotaccent" xOffset="-75"/>
    <contour>
      <point x="175" y="517" type="move" name="_top"/>
    </contour>
  </outline>
</glyph>
<glyph name="logicalnot" format="1">
  <advance width="534"/>
  <unicode hex="00AC"/>
  <outline>
    <contour>
      <point x="40" y="360" type="line"/>
      <point x="40" y="340" type="line"/>
      <point x="440" y="340" type="line"/>
      <point x="440" y="360" type="line"/>
    </contour>
    <contour>
      <point x="440" y="360" type="line"/>
      <point x="420" y="360" type="line"/>
      <point x="420" y="160" type="line"/>
      <point x="440" y="160" type="line"/>
    </contour>
  </outline>
</glyph>
<glyph name="macron" format="1">
  <advance width="350"/>
  <unicode hex="00AF"/>
  <outline>
    <contour>
      <point x="67" y="677" type="line"/>
      <point x="67" y="657" type="line"/>
      <point x="284" y="657" type="line"/>
      <point x="284" y="677" type="line"/>
    </contour>
    <contour>
      <point x="176" y="517" type="move" name="_top"/>
    </contour>
  </outline>
</glyph>
<glyph name="twosuperior" format="1">
  <advance width="374"/>
  <unicode hex="00B2"/>
  <outline>
    <contour>
      <point x="127" y="699"/>
      <point x="79" y="679"/>
      <point x="44" y="645" type="curve"/>
      <point x="56" y="630" type="line"/>
      <point x="87" y="661"/>
      <point x="131" y="680"/>
      <point x="171" y="680" type="curve"/>
      <point x="234" y="680"/>
      <point x="272" y="650"/>
      <point x="272" y="602" type="curve"/>
      <point x="272" y="571"/>
      <point x="247" y="527"/>
      <point x="206" y="486" type="curve" smooth="yes"/>
      <point x="45" y="314" type="line"/>
      <point x="45" y="293" type="line"/>
      <point x="323" y="293" type="line"/>
      <point x="323" y="312" type="line"/>
      <point x="69" y="312" type="line"/>
      <point x="220" y="474" type="line" smooth="yes"/>
      <point x="266" y="519"/>
      <point x="293" y="567"/>
      <point x="293" y="603" type="curve"/>
      <point x="293" y="662"/>
      <point x="247" y="699"/>
      <point x="173" y="699" type="curve"/>
    </contour>
  </outline>
</glyph>
<glyph name="threesuperior" format="1">
  <advance width="338"/>
  <unicode hex="00B3"/>
  <outline>
    <contour>
      <point x="123" y="523" type="line"/>
      <point x="265" y="683" type="line"/>
      <point x="265" y="698" type="line"/>
      <point x="39" y="698" type="line"/>
      <point x="39" y="680" type="line"/>
      <point x="239" y="680" type="line"/>
      <point x="97" y="521" type="line"/>
      <point x="97" y="506" type="line"/>
      <point x="142" y="506" type="line" smooth="yes"/>
      <point x="218" y="506"/>
      <point x="264" y="474"/>
      <point x="264" y="414" type="curve" smooth="yes"/>
      <point x="264" y="354"/>
      <point x="219" y="311"/>
      <point x="143" y="311" type="curve" smooth="yes"/>
      <point x="103" y="311"/>
      <point x="62" y="324"/>
      <point x="33" y="345" type="curve"/>
      <point x="22" y="328" type="line"/>
      <point x="54" y="307"/>
      <point x="100" y="293"/>
      <point x="144" y="293" type="curve" smooth="yes"/>
      <point x="231" y="293"/>
      <point x="285" y="343"/>
      <point x="285" y="416" type="curve" smooth="yes"/>
      <point x="285" y="483"/>
      <point x="230" y="522"/>
      <point x="148" y="523" type="curve" smooth="yes"/>
    </contour>
  </outline>
</glyph>
<glyph name="acute" format="1">
  <advance width="350"/>
  <unicode hex="00B4"/>
  <outline>
    <contour>
      <point x="95" y="624" type="line"/>
      <point x="127" y="624" type="line"/>
      <point x="256" y="729" type="line"/>
      <point x="237" y="739" type="line"/>
    </contour>
    <contour>
      <point x="127" y="517" type="move" name="_top"/>
    </contour>
  </outline>
</glyph>
<glyph name="mu" format="1">
  <advance width="659"/>
  <unicode hex="00B5"/>
  <outline>
    <contour>
      <point x="115" y="517" type="line"/>
      <point x="115" y="-194" type="line"/>
      <point x="135" y="-194" type="line"/>
      <point x="135" y="517" type="line"/>
    </contour>
    <contour>
      <point x="145" y="36" type="move"/>
    </contour>
    <component base="u" xOffset="22"/>
  </outline>
</glyph>
<glyph name="paragraph" format="1">
  <advance width="557"/>
  <unicode hex="00B6"/>
  <outline>
    <contour>
      <point x="203" y="742" type="line"/>
      <point x="62" y="742"/>
      <point x="7" y="660"/>
      <point x="7" y="576" type="curve" smooth="yes"/>
      <point x="7" y="514"/>
      <point x="40" y="417"/>
      <point x="169" y="417" type="curve" smooth="yes"/>
      <point x="181" y="417"/>
      <point x="193" y="418"/>
      <point x="207" y="419" type="curve"/>
      <point x="207" y="-112" type="line"/>
      <point x="227" y="-112" type="line"/>
      <point x="227" y="722" type="line"/>
      <point x="409" y="722" type="line"/>
      <point x="409" y="-112" type="line"/>
      <point x="429" y="-112" type="line"/>
      <point x="429" y="742" type="line"/>
    </contour>
  </outline>
</glyph>
<glyph name="cedilla" format="1">
  <advance width="350"/>
  <unicode hex="00B8"/>
  <outline>
    <contour>
      <point x="200" y="4" type="line"/>
      <point x="180" y="4" type="line"/>
      <point x="150" y="-67" type="line"/>
      <point x="155" y="-67"/>
      <point x="170" y="-67"/>
      <point x="179" y="-67" type="curve" smooth="yes"/>
      <point x="209" y="-67"/>
      <point x="231" y="-89"/>
      <point x="232" y="-118" type="curve" smooth="yes"/>
      <point x="234" y="-154"/>
      <point x="207" y="-180"/>
      <point x="168" y="-180" type="curve" smooth="yes"/>
      <point x="147" y="-180"/>
      <point x="121" y="-172"/>
      <point x="106" y="-161" type="curve"/>
      <point x="98" y="-180" type="line"/>
      <point x="114" y="-192"/>
      <point x="144" y="-200"/>
      <point x="168" y="-200" type="curve" smooth="yes"/>
      <point x="219" y="-200"/>
      <point x="254" y="-165"/>
      <point x="252" y="-118" type="curve" smooth="yes"/>
      <point x="251" y="-78"/>
      <point x="219" y="-49"/>
      <point x="178" y="-49" type="curve"/>
    </contour>
    <contour>
      <point x="175" y="0" type="move" name="_bottom"/>
    </contour>
  </outline>
</glyph>
<glyph name="Aring" format="1">
  <advance width="686"/>
  <unicode hex="00C5"/>
  <outline>
    <contour>
      <point x="282" y="896"/>
      <point x="231" y="845"/>
      <point x="231" y="787" type="curve" smooth="yes"/>
      <point x="231" y="729"/>
      <point x="282" y="679"/>
      <point x="343" y="679" type="curve" smooth="yes"/>
      <point x="404" y="679"/>
      <point x="456" y="729"/>
      <point x="456" y="787" type="curve" smooth="yes"/>
      <point x="456" y="845"/>
      <point x="404" y="896"/>
      <point x="343" y="896" type="curve" smooth="yes"/>
    </contour>
    <contour>
      <point x="393" y="876"/>
      <point x="436" y="835"/>
      <point x="436" y="787" type="curve" smooth="yes"/>
      <point x="436" y="739"/>
      <point x="393" y="699"/>
      <point x="343" y="699" type="curve" smooth="yes"/>
      <point x="293" y="699"/>
      <point x="251" y="739"/>
      <point x="251" y="787" type="curve" smooth="yes"/>
      <point x="251" y="835"/>
      <point x="293" y="876"/>
      <point x="343" y="876" type="curve" smooth="yes"/>
    </contour>
    <component base="A"/>
  </outline>
</glyph>
<glyph name="AE" format="1">
  <advance width="987"/>
  <unicode hex="00C6"/>
  <outline>
    <contour>
      <point x="431" y="699" type="line"/>
      <point x="10" y="0" type="line"/>
      <point x="34" y="0" type="line"/>
      <point x="442" y="679" type="line"/>
      <point x="730" y="679" type="line"/>
      <point x="736" y="699" type="line"/>
    </contour>
    <contour>
      <point x="157" y="243" type="line"/>
      <point x="156" y="223" type="line"/>
      <point x="486" y="223" type="line"/>
      <point x="487" y="243" type="line"/>
    </contour>
    <component base="E" xOffset="343"/>
    <contour>
      <point x="598" y="699" type="move" name="top"/>
    </contour>
  </outline>
</glyph>
<glyph name="Eth" format="1">
  <advance width="811"/>
  <unicode hex="00D0"/>
  <outline>
    <contour>
      <point x="0" y="362" type="line"/>
      <point x="0" y="342" type="line"/>
      <point x="410" y="342" type="line"/>
      <point x="410" y="362" type="line"/>
    </contour>
    <component base="D"/>
  </outline>
</glyph>
<glyph name="multiply" format="1">
  <advance width="480"/>
  <unicode hex="00D7"/>
  <outline>
    <contour>
      <point x="106" y="468" type="line"/>
      <point x="92" y="454" type="line"/>
      <point x="374" y="172" type="line"/>
      <point x="388" y="186" type="line"/>
    </contour>
    <contour>
      <point x="374" y="468" type="line"/>
      <point x="92" y="186" type="line"/>
      <point x="106" y="172" type="line"/>
      <point x="388" y="454" type="line"/>
    </contour>
  </outline>
</glyph>
<glyph name="Oslash" format="1">
  <advance width="818"/>
  <unicode hex="00D8"/>
  <outline>
    <contour>
      <point x="538" y="816" type="line"/>
      <point x="232" y="-140" type="line"/>
      <point x="253" y="-140" type="line"/>
      <point x="559" y="816" type="line"/>
    </contour>
    <component base="O"/>
    <contour>
      <point x="409" y="699" type="move" name="top"/>
    </contour>
  </outline>
</glyph>
<glyph name="Thorn" format="1">
  <advance width="662"/>
  <unicode hex="00DE"/>
  <outline>
    <contour>
      <point x="139" y="587" type="line"/>
      <point x="141" y="567" type="line"/>
      <point x="335" y="567" type="line" smooth="yes"/>
      <point x="521" y="567"/>
      <point x="612" y="501"/>
      <point x="612" y="367" type="curve" smooth="yes"/>
      <point x="612" y="229"/>
      <point x="521" y="162"/>
      <point x="335" y="162" type="curve" smooth="yes"/>
      <point x="143" y="162" type="line"/>
      <point x="143" y="142" type="line"/>
      <point x="335" y="142" type="line" smooth="yes"/>
      <point x="534" y="142"/>
      <point x="632" y="216"/>
      <point x="632" y="367" type="curve" smooth="yes"/>
      <point x="632" y="515"/>
      <point x="534" y="587"/>
      <point x="335" y="587" type="curve" smooth="yes"/>
    </contour>
    <contour>
      <point x="128" y="699" type="line"/>
      <point x="128" y="0" type="line"/>
      <point x="148" y="0" type="line"/>
      <point x="148" y="699" type="line"/>
    </contour>
  </outline>
</glyph>
<glyph name="ae" format="1">
  <advance width="988"/>
  <unicode hex="00E6"/>
  <outline>
    <contour>
      <point x="556" y="124" type="move"/>
    </contour>
    <contour>
      <point x="209" y="517"/>
      <point x="148" y="487"/>
      <point x="89" y="441" type="curve"/>
      <point x="101" y="425" type="line"/>
      <point x="158" y="469"/>
      <point x="213" y="497"/>
      <point x="283" y="497" type="curve"/>
      <point x="392" y="497"/>
      <point x="447" y="440"/>
      <point x="448" y="345" type="curve"/>
      <point x="450" y="259" type="line"/>
      <point x="470" y="259" type="line"/>
      <point x="468" y="345" type="line"/>
      <point x="467" y="450"/>
      <point x="402" y="517"/>
      <point x="283" y="517" type="curve"/>
    </contour>
    <contour>
      <point x="256" y="282" type="line"/>
      <point x="138" y="282"/>
      <point x="63" y="233"/>
      <point x="63" y="149" type="curve"/>
      <point x="63" y="63"/>
      <point x="132" y="0"/>
      <point x="232" y="0" type="curve"/>
      <point x="341" y="0"/>
      <point x="427" y="48"/>
      <point x="471" y="161" type="curve"/>
      <point x="465" y="199" type="line"/>
      <point x="420" y="65"/>
      <point x="340" y="20"/>
      <point x="232" y="20" type="curve"/>
      <point x="142" y="20"/>
      <point x="83" y="73"/>
      <point x="83" y="149" type="curve"/>
      <point x="83" y="221"/>
      <point x="146" y="262"/>
      <point x="256" y="262" type="curve"/>
      <point x="460" y="262" type="line"/>
      <point x="460" y="282" type="line"/>
    </contour>
    <contour>
      <point x="462" y="259" type="line"/>
      <point x="940" y="259" type="line"/>
      <point x="940" y="409"/>
      <point x="843" y="517"/>
      <point x="700" y="517" type="curve" smooth="yes"/>
      <point x="557" y="517"/>
      <point x="450" y="409"/>
      <point x="450" y="259" type="curve" smooth="yes"/>
      <point x="450" y="108"/>
      <point x="557" y="0"/>
      <point x="700" y="0" type="curve" smooth="yes"/>
      <point x="780" y="0"/>
      <point x="849" y="30"/>
      <point x="897" y="81" type="curve"/>
      <point x="883" y="95" type="line"/>
      <point x="839" y="47"/>
      <point x="775" y="20"/>
      <point x="700" y="20" type="curve" smooth="yes"/>
      <point x="567" y="20"/>
      <point x="470" y="118"/>
      <point x="470" y="259" type="curve" smooth="yes"/>
      <point x="470" y="399"/>
      <point x="567" y="497"/>
      <point x="700" y="497" type="curve" smooth="yes"/>
      <point x="827" y="497"/>
      <point x="911" y="408"/>
      <point x="920" y="279" type="curve"/>
      <point x="462" y="279" type="line"/>
    </contour>
    <contour>
      <point x="494" y="517" type="move" name="top"/>
    </contour>
  </outline>
</glyph>
<glyph name="oslash" format="1">
  <advance width="606"/>
  <unicode hex="00F8"/>
  <outline>
    <contour>
      <point x="418" y="653" type="line"/>
      <point x="161" y="-153" type="line"/>
      <point x="182" y="-153" type="line"/>
      <point x="439" y="653" type="line"/>
    </contour>
    <contour>
      <point x="159" y="517"/>
      <point x="52" y="409"/>
      <point x="52" y="259" type="curve" smooth="yes"/>
      <point x="52" y="108"/>
      <point x="159" y="0"/>
      <point x="303" y="0" type="curve" smooth="yes"/>
      <point x="447" y="0"/>
      <point x="554" y="108"/>
      <point x="554" y="259" type="curve" smooth="yes"/>
      <point x="554" y="409"/>
      <point x="447" y="517"/>
      <point x="303" y="517" type="curve" smooth="yes"/>
    </contour>
    <contour>
      <point x="437" y="497"/>
      <point x="534" y="399"/>
      <point x="534" y="259" type="curve" smooth="yes"/>
      <point x="534" y="118"/>
      <point x="437" y="20"/>
      <point x="303" y="20" type="curve" smooth="yes"/>
      <point x="169" y="20"/>
      <point x="72" y="118"/>
      <point x="72" y="259" type="curve" smooth="yes"/>
      <point x="72" y="399"/>
      <point x="169" y="497"/>
      <point x="303" y="497" type="curve" smooth="yes"/>
    </contour>
    <contour>
      <point x="303" y="517" type="move" name="top"/>
    </contour>
  </outline>
</glyph>
<glyph name="Aogonek" format="1">
  <advance width="686"/>
  <unicode hex="0104"/>
  <outline>
    <contour>
      <point x="330" y="699" type="line"/>
      <point x="10" y="0" type="line"/>
      <point x="34" y="0" type="line"/>
      <point x="131" y="213" type="line"/>
      <point x="555" y="213" type="line"/>
      <point x="653" y="0" type="line"/>
      <point x="654" y="0" type="line"/>
      <point x="612" y="-62"/>
      <point x="595" y="-99"/>
      <point x="595" y="-131" type="curve" smooth="yes"/>
      <point x="595" y="-172"/>
      <point x="623" y="-199"/>
      <point x="659" y="-199" type="curve" smooth="yes"/>
      <point x="686" y="-199"/>
      <point x="714" y="-181"/>
      <point x="733" y="-159" type="curve"/>
      <point x="719" y="-145" type="line"/>
      <point x="701" y="-165"/>
      <point x="681" y="-179"/>
      <point x="659" y="-179" type="curve" smooth="yes"/>
      <point x="634" y="-179"/>
      <point x="615" y="-162"/>
      <point x="615" y="-131" type="curve" smooth="yes"/>
      <point x="615" y="-102"/>
      <point x="624" y="-69"/>
      <point x="675" y="0" type="curve"/>
      <point x="676" y="0" type="line"/>
      <point x="352" y="699" type="line"/>
    </contour>
    <contour>
      <point x="546" y="233" type="line"/>
      <point x="140" y="233" type="line"/>
      <point x="341" y="676" type="line"/>
    </contour>
  </outline>
</glyph>
<glyph name="aogonek" format="1">
  <advance width="566"/>
  <unicode hex="0105"/>
  <outline>
    <contour>
      <point x="210" y="517"/>
      <point x="149" y="487"/>
      <point x="90" y="441" type="curve"/>
      <point x="102" y="425" type="line"/>
      <point x="159" y="469"/>
      <point x="214" y="497"/>
      <point x="288" y="497" type="curve" smooth="yes"/>
      <point x="394" y="497"/>
      <point x="450" y="440"/>
      <point x="451" y="345" type="curve" smooth="yes"/>
      <point x="451" y="282" type="line"/>
      <point x="257" y="282" type="line" smooth="yes"/>
      <point x="138" y="282"/>
      <point x="63" y="234"/>
      <point x="63" y="147" type="curve" smooth="yes"/>
      <point x="63" y="66"/>
      <point x="127" y="0"/>
      <point x="239" y="0" type="curve" smooth="yes"/>
      <point x="319" y="0"/>
      <point x="403" y="33"/>
      <point x="451" y="115" type="curve"/>
      <point x="451" y="7" type="line"/>
      <point x="452" y="7" type="line"/>
      <point x="384" y="-56"/>
      <point x="361" y="-97"/>
      <point x="361" y="-132" type="curve" smooth="yes"/>
      <point x="361" y="-171"/>
      <point x="389" y="-199"/>
      <point x="424" y="-199" type="curve" smooth="yes"/>
      <point x="451" y="-199"/>
      <point x="478" y="-183"/>
      <point x="499" y="-159" type="curve"/>
      <point x="485" y="-145" type="line"/>
      <point x="467" y="-165"/>
      <point x="447" y="-179"/>
      <point x="425" y="-179" type="curve" smooth="yes"/>
      <point x="400" y="-179"/>
      <point x="381" y="-162"/>
      <point x="381" y="-131" type="curve" smooth="yes"/>
      <point x="381" y="-100"/>
      <point x="398" y="-66"/>
      <point x="470" y="0" type="curve"/>
      <point x="471" y="0" type="line"/>
      <point x="471" y="345" type="line"/>
      <point x="470" y="450"/>
      <point x="404" y="517"/>
      <point x="288" y="517" type="curve" smooth="yes"/>
    </contour>
    <contour>
      <point x="451" y="159" type="line"/>
      <point x="408" y="56"/>
      <point x="324" y="20"/>
      <point x="240" y="20" type="curve" smooth="yes"/>
      <point x="134" y="20"/>
      <point x="83" y="78"/>
      <point x="83" y="146" type="curve" smooth="yes"/>
      <point x="83" y="222"/>
      <point x="145" y="262"/>
      <point x="257" y="262" type="curve" smooth="yes"/>
      <point x="451" y="262" type="line"/>
    </contour>
  </outline>
</glyph>
<glyph name="dcaron" format="1">
  <advance width="666"/>
  <unicode hex="010F"/>
  <outline>
    <contour>
      <point x="286" y="-92" type="move"/>
    </contour>
    <component base="d"/>
    <component base="quoteright" xOffset="576"/>
  </outline>
</glyph>
<glyph name="dcroat" format="1">
  <advance width="667"/>
  <unicode hex="0111"/>
  <outline>
    <contour>
      <point x="417" y="677" type="line"/>
      <point x="417" y="657" type="line"/>
      <point x="634" y="657" type="line"/>
      <point x="634" y="677" type="line"/>
    </contour>
    <component base="d"/>
  </outline>
</glyph>
<glyph name="Eogonek" format="1">
  <advance width="644"/>
  <unicode hex="0118"/>
  <outline>
    <contour>
      <point x="128" y="699" type="line"/>
      <point x="128" y="0" type="line"/>
      <point x="502" y="0" type="line"/>
      <point x="458" y="-62"/>
      <point x="442" y="-99"/>
      <point x="442" y="-131" type="curve" smooth="yes"/>
      <point x="442" y="-172"/>
      <point x="470" y="-199"/>
      <point x="506" y="-199" type="curve" smooth="yes"/>
      <point x="533" y="-199"/>
      <point x="561" y="-181"/>
      <point x="580" y="-159" type="curve"/>
      <point x="566" y="-145" type="line"/>
      <point x="548" y="-165"/>
      <point x="528" y="-179"/>
      <point x="506" y="-179" type="curve" smooth="yes"/>
      <point x="481" y="-179"/>
      <point x="462" y="-162"/>
      <point x="462" y="-131" type="curve" smooth="yes"/>
      <point x="462" y="-100"/>
      <point x="474" y="-66"/>
      <point x="522" y="0" type="curve"/>
      <point x="579" y="0" type="line"/>
      <point x="579" y="20" type="line"/>
      <point x="148" y="20" type="line"/>
      <point x="148" y="350" type="line"/>
      <point x="519" y="350" type="line"/>
      <point x="519" y="370" type="line"/>
      <point x="148" y="370" type="line"/>
      <point x="148" y="679" type="line"/>
      <point x="565" y="679" type="line"/>
      <point x="565" y="699" type="line"/>
    </contour>
  </outline>
</glyph>
<glyph name="eogonek" format="1">
  <advance width="589"/>
  <unicode hex="0119"/>
  <outline>
    <contour>
      <point x="158" y="517"/>
      <point x="52" y="409"/>
      <point x="52" y="259" type="curve" smooth="yes"/>
      <point x="52" y="108"/>
      <point x="158" y="0"/>
      <point x="301" y="0" type="curve" smooth="yes"/>
      <point x="360" y="0"/>
      <point x="413" y="18"/>
      <point x="457" y="51" type="curve"/>
      <point x="401" y="-28"/>
      <point x="382" y="-84"/>
      <point x="382" y="-131" type="curve" smooth="yes"/>
      <point x="382" y="-172"/>
      <point x="410" y="-199"/>
      <point x="446" y="-199" type="curve" smooth="yes"/>
      <point x="472" y="-199"/>
      <point x="500" y="-181"/>
      <point x="519" y="-159" type="curve"/>
      <point x="505" y="-145" type="line"/>
      <point x="487" y="-165"/>
      <point x="467" y="-179"/>
      <point x="446" y="-179" type="curve" smooth="yes"/>
      <point x="421" y="-179"/>
      <point x="402" y="-162"/>
      <point x="402" y="-131" type="curve" smooth="yes"/>
      <point x="402" y="-81"/>
      <point x="418" y="-23"/>
      <point x="498" y="81" type="curve"/>
      <point x="484" y="95" type="line"/>
      <point x="441" y="47"/>
      <point x="376" y="20"/>
      <point x="301" y="20" type="curve" smooth="yes"/>
      <point x="168" y="20"/>
      <point x="72" y="118"/>
      <point x="72" y="259" type="curve"/>
      <point x="541" y="259" type="line"/>
      <point x="541" y="409"/>
      <point x="445" y="517"/>
      <point x="301" y="517" type="curve" smooth="yes"/>
    </contour>
    <contour>
      <point x="429" y="497"/>
      <point x="512" y="408"/>
      <point x="521" y="279" type="curve"/>
      <point x="73" y="279" type="line"/>
      <point x="81" y="408"/>
      <point x="175" y="497"/>
      <point x="301" y="497" type="curve" smooth="yes"/>
    </contour>
  </outline>
</glyph>
<glyph name="hbar" format="1">
  <advance width="642"/>
  <unicode hex="0127"/>
  <outline>
    <contour>
      <point x="25" y="635" type="line"/>
      <point x="25" y="615" type="line"/>
      <point x="315" y="615" type="line"/>
      <point x="315" y="635" type="line"/>
    </contour>
    <component base="h"/>
  </outline>
</glyph>
<glyph name="Iogonek" format="1">
  <advance width="276"/>
  <unicode hex="012E"/>
  <outline>
    <contour>
      <point x="192" y="-145" type="line"/>
      <point x="174" y="-165"/>
      <point x="154" y="-179"/>
      <point x="132" y="-179" type="curve" smooth="yes"/>
      <point x="107" y="-179"/>
      <point x="88" y="-162"/>
      <point x="88" y="-131" type="curve" smooth="yes"/>
      <point x="88" y="-100"/>
      <point x="99" y="-66"/>
      <point x="147" y="0" type="curve"/>
      <point x="148" y="0" type="line"/>
      <point x="148" y="699" type="line"/>
      <point x="128" y="699" type="line"/>
      <point x="128" y="4" type="line"/>
      <point x="129" y="4" type="line"/>
      <point x="85" y="-58"/>
      <point x="68" y="-99"/>
      <point x="68" y="-131" type="curve" smooth="yes"/>
      <point x="68" y="-172"/>
      <point x="96" y="-199"/>
      <point x="132" y="-199" type="curve" smooth="yes"/>
      <point x="159" y="-199"/>
      <point x="187" y="-181"/>
      <point x="206" y="-159" type="curve"/>
    </contour>
  </outline>
</glyph>
<glyph name="iogonek" format="1">
  <advance width="230"/>
  <unicode hex="012F"/>
  <outline>
    <contour>
      <point x="105" y="517" type="line"/>
      <point x="105" y="0" type="line"/>
      <point x="106" y="0" type="line"/>
      <point x="68" y="-62"/>
      <point x="53" y="-99"/>
      <point x="53" y="-131" type="curve" smooth="yes"/>
      <point x="53" y="-172"/>
      <point x="81" y="-199"/>
      <point x="117" y="-199" type="curve" smooth="yes"/>
      <point x="144" y="-199"/>
      <point x="172" y="-181"/>
      <point x="191" y="-159" type="curve"/>
      <point x="177" y="-145" type="line"/>
      <point x="159" y="-165"/>
      <point x="139" y="-179"/>
      <point x="117" y="-179" type="curve" smooth="yes"/>
      <point x="92" y="-179"/>
      <point x="73" y="-162"/>
      <point x="73" y="-131" type="curve" smooth="yes"/>
      <point x="73" y="-100"/>
      <point x="82" y="-66"/>
      <point x="124" y="0" type="curve"/>
      <point x="125" y="0" type="line"/>
      <point x="125" y="517" type="line"/>
    </contour>
    <contour>
      <point x="101" y="692"/>
      <point x="89" y="680"/>
      <point x="89" y="666" type="curve" smooth="yes"/>
      <point x="89" y="652"/>
      <point x="101" y="640"/>
      <point x="115" y="640" type="curve" smooth="yes"/>
      <point x="129" y="640"/>
      <point x="141" y="652"/>
      <point x="141" y="666" type="curve" smooth="yes"/>
      <point x="141" y="680"/>
      <point x="129" y="692"/>
      <point x="115" y="692" type="curve" smooth="yes"/>
    </contour>
  </outline>
</glyph>
<glyph name="dotlessi" format="1">
  <advance width="240"/>
  <unicode hex="0131"/>
  <outline>
    <contour>
      <point x="110" y="517" type="line"/>
      <point x="110" y="0" type="line"/>
      <point x="130" y="0" type="line"/>
      <point x="130" y="517" type="line"/>
    </contour>
    <contour>
      <point x="189" y="10" type="move" name="ogonek"/>
    </contour>
    <contour>
      <point x="120" y="517" type="move" name="top"/>
    </contour>
  </outline>
</glyph>
<glyph name="kcedilla" format="1">
  <advance width="538"/>
  <unicode hex="0137"/>
  <outline>
    <contour>
      <point x="128" y="0" type="line"/>
      <point x="108" y="0" type="line"/>
      <point x="81" y="-62" type="line"/>
      <point x="86" y="-62"/>
      <point x="100" y="-62"/>
      <point x="109" y="-62" type="curve" smooth="yes"/>
      <point x="139" y="-62"/>
      <point x="161" y="-84"/>
      <point x="162" y="-113" type="curve" smooth="yes"/>
      <point x="164" y="-149"/>
      <point x="137" y="-175"/>
      <point x="98" y="-175" type="curve" smooth="yes"/>
      <point x="77" y="-175"/>
      <point x="51" y="-167"/>
      <point x="36" y="-156" type="curve"/>
      <point x="28" y="-175" type="line"/>
      <point x="44" y="-187"/>
      <point x="74" y="-195"/>
      <point x="98" y="-195" type="curve" smooth="yes"/>
      <point x="149" y="-195"/>
      <point x="184" y="-160"/>
      <point x="182" y="-113" type="curve" smooth="yes"/>
      <point x="181" y="-73"/>
      <point x="150" y="-44"/>
      <point x="109" y="-44" type="curve"/>
    </contour>
    <component base="k"/>
  </outline>
</glyph>
<glyph name="kgreenlandic" format="1">
  <advance width="535"/>
  <unicode hex="0138"/>
  <outline>
    <contour>
      <point x="230" y="111" type="move"/>
    </contour>
    <contour>
      <point x="110" y="517" type="line"/>
      <point x="110" y="0" type="line"/>
      <point x="130" y="0" type="line"/>
      <point x="130" y="517" type="line"/>
    </contour>
    <contour>
      <point x="461" y="517" type="line"/>
      <point x="125" y="178" type="line"/>
      <point x="125" y="147" type="line"/>
      <point x="489" y="517" type="line"/>
    </contour>
    <contour>
      <point x="269" y="314" type="line"/>
      <point x="495" y="0" type="line"/>
      <point x="519" y="0" type="line"/>
      <point x="285" y="326" type="line"/>
    </contour>
    <contour>
      <point x="189" y="10" type="move" name="ogonek"/>
    </contour>
    <contour>
      <point x="266" y="0" type="move" name="bottom"/>
    </contour>
    <contour>
      <point x="120" y="517" type="move" name="top"/>
    </contour>
  </outline>
</glyph>
<glyph name="lcaron" format="1">
  <advance width="236"/>
  <unicode hex="013E"/>
  <outline>
    <contour>
      <point x="114" y="-106" type="move"/>
    </contour>
    <component base="l"/>
    <component base="quoteright" xOffset="146"/>
  </outline>
</glyph>
<glyph name="ldot" format="1">
  <advance width="236"/>
  <unicode hex="0140"/>
  <outline>
    <contour>
      <point x="219" y="331"/>
      <point x="207" y="319"/>
      <point x="207" y="305" type="curve" smooth="yes"/>
      <point x="207" y="291"/>
      <point x="219" y="279"/>
      <point x="233" y="279" type="curve" smooth="yes"/>
      <point x="247" y="279"/>
      <point x="259" y="291"/>
      <point x="259" y="305" type="curve" smooth="yes"/>
      <point x="259" y="319"/>
      <point x="247" y="331"/>
      <point x="233" y="331" type="curve" smooth="yes"/>
    </contour>
    <component base="l"/>
  </outline>
</glyph>
<glyph name="Lslash" format="1">
  <advance width="503"/>
  <unicode hex="0141"/>
  <outline>
    <contour>
      <point x="36" y="428" type="line"/>
      <point x="41" y="409" type="line"/>
      <point x="349" y="497" type="line"/>
      <point x="344" y="517" type="line"/>
    </contour>
    <component base="L" xOffset="12"/>
  </outline>
</glyph>
<glyph name="lslash" format="1">
  <advance width="256"/>
  <unicode hex="0142"/>
  <outline>
    <contour>
      <point x="0" y="441" type="line"/>
      <point x="5" y="422" type="line"/>
      <point x="267" y="497" type="line"/>
      <point x="262" y="517" type="line"/>
    </contour>
    <component base="l" xOffset="10"/>
  </outline>
</glyph>
<glyph name="OE" format="1">
  <advance width="1089"/>
  <unicode hex="0152"/>
  <outline>
    <contour>
      <point x="409" y="699" type="line"/>
      <point x="212" y="699"/>
      <point x="50" y="542"/>
      <point x="50" y="350" type="curve" smooth="yes"/>
      <point x="50" y="158"/>
      <point x="212" y="0"/>
      <point x="409" y="0" type="curve"/>
      <point x="579" y="0" type="line"/>
      <point x="578" y="17" type="line"/>
      <point x="409" y="19" type="line"/>
      <point x="222" y="19"/>
      <point x="69" y="168"/>
      <point x="69" y="350" type="curve" smooth="yes"/>
      <point x="69" y="532"/>
      <point x="222" y="680"/>
      <point x="409" y="680" type="curve"/>
      <point x="579" y="680" type="line"/>
      <point x="581" y="699" type="line"/>
    </contour>
    <component base="E" xOffset="445"/>
    <contour>
      <point x="545" y="699" type="move" name="top"/>
    </contour>
  </outline>
</glyph>
<glyph name="Uogonek" format="1">
  <advance width="774"/>
  <unicode hex="0172"/>
  <outline>
    <contour>
      <point x="644" y="699" type="line"/>
      <point x="644" y="284" type="line"/>
      <point x="644" y="116"/>
      <point x="550" y="20"/>
      <point x="387" y="20" type="curve"/>
      <point x="224" y="20"/>
      <point x="130" y="116"/>
      <point x="130" y="284" type="curve"/>
      <point x="130" y="699" type="line"/>
      <point x="110" y="699" type="line"/>
      <point x="110" y="284" type="line"/>
      <point x="110" y="103"/>
      <point x="211" y="0"/>
      <point x="387" y="0" type="curve"/>
      <point x="563" y="0"/>
      <point x="664" y="103"/>
      <point x="664" y="284" type="curve"/>
      <point x="664" y="699" type="line"/>
    </contour>
    <contour>
      <point x="464" y="23" type="line"/>
      <point x="409" y="-50"/>
      <point x="389" y="-93"/>
      <point x="389" y="-131" type="curve" smooth="yes"/>
      <point x="389" y="-172"/>
      <point x="417" y="-199"/>
      <point x="453" y="-199" type="curve" smooth="yes"/>
      <point x="480" y="-199"/>
      <point x="508" y="-181"/>
      <point x="527" y="-159" type="curve"/>
      <point x="513" y="-145" type="line"/>
      <point x="495" y="-165"/>
      <point x="475" y="-179"/>
      <point x="453" y="-179" type="curve" smooth="yes"/>
      <point x="428" y="-179"/>
      <point x="409" y="-162"/>
      <point x="409" y="-131" type="curve" smooth="yes"/>
      <point x="409" y="-95"/>
      <point x="424" y="-55"/>
      <point x="484" y="23" type="curve"/>
    </contour>
  </outline>
</glyph>
<glyph name="uogonek" format="1">
  <advance width="639"/>
  <unicode hex="0173"/>
  <outline>
    <contour>
      <point x="514" y="517" type="line"/>
      <point x="514" y="236" type="line"/>
      <point x="505" y="101"/>
      <point x="420" y="21"/>
      <point x="297" y="20" type="curve" smooth="yes"/>
      <point x="184" y="19"/>
      <point x="113" y="85"/>
      <point x="113" y="204" type="curve" smooth="yes"/>
      <point x="113" y="517" type="line"/>
      <point x="93" y="517" type="line"/>
      <point x="93" y="204" type="line" smooth="yes"/>
      <point x="93" y="76"/>
      <point x="165" y="1"/>
      <point x="295" y="1" type="curve" smooth="yes"/>
      <point x="408" y="1"/>
      <point x="481" y="57"/>
      <point x="514" y="145.992" type="curve"/>
      <point x="514" y="5" type="line"/>
      <point x="515" y="5" type="line"/>
      <point x="461" y="-65"/>
      <point x="447" y="-103"/>
      <point x="447" y="-133" type="curve" smooth="yes"/>
      <point x="447" y="-179"/>
      <point x="479" y="-199"/>
      <point x="510" y="-199" type="curve" smooth="yes"/>
      <point x="537" y="-199"/>
      <point x="564" y="-183"/>
      <point x="585" y="-159" type="curve"/>
      <point x="571" y="-145" type="line"/>
      <point x="552" y="-166"/>
      <point x="533" y="-179"/>
      <point x="510" y="-179" type="curve" smooth="yes"/>
      <point x="486" y="-179"/>
      <point x="467" y="-166"/>
      <point x="467" y="-131" type="curve" smooth="yes"/>
      <point x="467" y="-106"/>
      <point x="476" y="-67"/>
      <point x="533" y="0" type="curve"/>
      <point x="534" y="0" type="line"/>
      <point x="534" y="517" type="line"/>
    </contour>
  </outline>
</glyph>
<glyph name="dotlessj" format="1">
  <advance width="219"/>
  <unicode hex="0237"/>
  <outline>
    <contour>
      <point x="105" y="517" type="line"/>
      <point x="105" y="-31" type="line"/>
      <point x="105" y="-125"/>
      <point x="72" y="-174"/>
      <point x="9" y="-173" type="curve"/>
      <point x="-23" y="-172"/>
      <point x="-55" y="-161"/>
      <point x="-81" y="-140" type="curve"/>
      <point x="-93" y="-156" type="line"/>
      <point x="-63" y="-179"/>
      <point x="-28" y="-192"/>
      <point x="9" y="-193" type="curve"/>
      <point x="85" y="-194"/>
      <point x="125" y="-139"/>
      <point x="125" y="-31" type="curve"/>
      <point x="125" y="517" type="line"/>
    </contour>
    <contour>
      <point x="115" y="517" type="move" name="top"/>
    </contour>
  </outline>
</glyph>
<glyph name="circumflex" format="1">
  <advance width="350"/>
  <unicode hex="02C6"/>
  <outline>
    <contour>
      <point x="160" y="734" type="line"/>
      <point x="61" y="624" type="line"/>
      <point x="88" y="624" type="line"/>
      <point x="175" y="720" type="line"/>
      <point x="262" y="624" type="line"/>
      <point x="289" y="624" type="line"/>
      <point x="190" y="734" type="line"/>
    </contour>
    <contour>
      <point x="175" y="517" type="move" name="_top"/>
    </contour>
  </outline>
</glyph>
<glyph name="caron" format="1">
  <advance width="350"/>
  <unicode hex="02C7"/>
  <outline>
    <contour>
      <point x="190" y="624" type="line"/>
      <point x="289" y="734" type="line"/>
      <point x="262" y="734" type="line"/>
      <point x="175" y="638" type="line"/>
      <point x="88" y="734" type="line"/>
      <point x="61" y="734" type="line"/>
      <point x="160" y="624" type="line"/>
    </contour>
    <contour>
      <point x="175" y="517" type="move" name="_top"/>
    </contour>
  </outline>
</glyph>
<glyph name="breve" format="1">
  <advance width="350"/>
  <unicode hex="02D8"/>
  <outline>
    <contour>
      <point x="260" y="726" type="line"/>
      <point x="258" y="678"/>
      <point x="222" y="641"/>
      <point x="175" y="641" type="curve" smooth="yes"/>
      <point x="128" y="641"/>
      <point x="92" y="678"/>
      <point x="90" y="726" type="curve"/>
      <point x="70" y="726" type="line"/>
      <point x="72" y="666"/>
      <point x="118" y="621"/>
      <point x="175" y="621" type="curve" smooth="yes"/>
      <point x="232" y="621"/>
      <point x="278" y="666"/>
      <point x="280" y="726" type="curve"/>
    </contour>
    <contour>
      <point x="175" y="517" type="move" name="_top"/>
    </contour>
  </outline>
</glyph>
<glyph name="dotaccent" format="1">
  <advance width="350"/>
  <unicode hex="02D9"/>
  <outline>
    <contour>
      <point x="161" y="692"/>
      <point x="149" y="680"/>
      <point x="149" y="666" type="curve" smooth="yes"/>
      <point x="149" y="652"/>
      <point x="161" y="640"/>
      <point x="175" y="640" type="curve" smooth="yes"/>
      <point x="189" y="640"/>
      <point x="201" y="652"/>
      <point x="201" y="666" type="curve" smooth="yes"/>
      <point x="201" y="680"/>
      <point x="189" y="692"/>
      <point x="175" y="692" type="curve" smooth="yes"/>
    </contour>
    <contour>
      <point x="175" y="517" type="move" name="_top"/>
    </contour>
  </outline>
</glyph>
<glyph name="ring" format="1">
  <advance width="350"/>
  <unicode hex="02DA"/>
  <outline>
    <contour>
      <point x="114" y="776"/>
      <point x="63" y="725"/>
      <point x="63" y="667" type="curve" smooth="yes"/>
      <point x="63" y="609"/>
      <point x="114" y="559"/>
      <point x="175" y="559" type="curve" smooth="yes"/>
      <point x="236" y="559"/>
      <point x="288" y="609"/>
      <point x="288" y="667" type="curve" smooth="yes"/>
      <point x="288" y="725"/>
      <point x="236" y="776"/>
      <point x="175" y="776" type="curve" smooth="yes"/>
    </contour>
    <contour>
      <point x="225" y="756"/>
      <point x="268" y="715"/>
      <point x="268" y="667" type="curve" smooth="yes"/>
      <point x="268" y="619"/>
      <point x="225" y="579"/>
      <point x="175" y="579" type="curve" smooth="yes"/>
      <point x="125" y="579"/>
      <point x="83" y="619"/>
      <point x="83" y="667" type="curve" smooth="yes"/>
      <point x="83" y="715"/>
      <point x="125" y="756"/>
      <point x="175" y="756" type="curve" smooth="yes"/>
    </contour>
    <contour>
      <point x="176" y="517" type="move" name="_top"/>
    </contour>
  </outline>
</glyph>
<glyph name="ogonek" format="1">
  <advance width="350"/>
  <unicode hex="02DB"/>
  <outline>
    <contour>
      <point x="166" y="0" type="line"/>
      <point x="122" y="-62"/>
      <point x="106" y="-99"/>
      <point x="106" y="-131" type="curve" smooth="yes"/>
      <point x="106" y="-172"/>
      <point x="134" y="-199"/>
      <point x="170" y="-199" type="curve" smooth="yes"/>
      <point x="197" y="-199"/>
      <point x="225" y="-181"/>
      <point x="244" y="-159" type="curve"/>
      <point x="230" y="-145" type="line"/>
      <point x="212" y="-165"/>
      <point x="192" y="-179"/>
      <point x="170" y="-179" type="curve" smooth="yes"/>
      <point x="145" y="-179"/>
      <point x="126" y="-162"/>
      <point x="126" y="-131" type="curve" smooth="yes"/>
      <point x="126" y="-100"/>
      <point x="138" y="-66"/>
      <point x="186" y="0" type="curve"/>
    </contour>
    <contour>
      <point x="244" y="10" type="move" name="_ogonek"/>
    </contour>
  </outline>
</glyph>
<glyph name="tilde" format="1">
  <advance width="350"/>
  <unicode hex="02DC"/>
  <outline>
    <contour>
      <point x="69" y="720"/>
      <point x="43" y="690"/>
      <point x="43" y="640" type="curve"/>
      <point x="63" y="640" type="line"/>
      <point x="63" y="678"/>
      <point x="81" y="700"/>
      <point x="113" y="700" type="curve" smooth="yes"/>
      <point x="157" y="700"/>
      <point x="181" y="630"/>
      <point x="238" y="630" type="curve" smooth="yes"/>
      <point x="282" y="630"/>
      <point x="308" y="660"/>
      <point x="308" y="710" type="curve"/>
      <point x="288" y="710" type="line"/>
      <point x="288" y="672"/>
      <point x="270" y="650"/>
      <point x="238" y="650" type="curve" smooth="yes"/>
      <point x="195" y="650"/>
      <point x="162" y="720"/>
      <point x="113" y="720" type="curve" smooth="yes"/>
    </contour>
    <contour>
      <point x="176" y="517" type="move" name="_top"/>
    </contour>
  </outline>
</glyph>
<glyph name="hungarumlaut" format="1">
  <advance width="350"/>
  <unicode hex="02DD"/>
  <outline>
    <contour>
      <point x="174" y="624" type="line"/>
      <point x="201" y="624" type="line"/>
      <point x="295" y="728" type="line"/>
      <point x="278" y="739" type="line"/>
    </contour>
    <contour>
      <point x="55" y="624" type="line"/>
      <point x="82" y="624" type="line"/>
      <point x="176" y="728" type="line"/>
      <point x="159" y="739" type="line"/>
    </contour>
    <contour>
      <point x="155" y="517" type="move" name="_top"/>
    </contour>
  </outline>
</glyph>
<glyph name="uni0326" format="1">
  <advance width="170"/>
  <unicode hex="0326"/>
  <outline>
    <contour>
      <point x="52" y="-164" type="line"/>
      <point x="72" y="-164" type="line"/>
      <point x="103" y="-117" type="line" smooth="yes"/>
      <point x="109" y="-108"/>
      <point x="113" y="-101"/>
      <point x="113" y="-92" type="curve" smooth="yes"/>
      <point x="113" y="-77"/>
      <point x="101" y="-65"/>
      <point x="87" y="-65" type="curve" smooth="yes"/>
      <point x="73" y="-65"/>
      <point x="61" y="-76"/>
      <point x="61" y="-91" type="curve" smooth="yes"/>
      <point x="61" y="-103"/>
      <point x="68" y="-114"/>
      <point x="80" y="-117" type="curve"/>
      <point x="85" y="-106" type="line"/>
    </contour>
    <contour>
      <point x="83" y="0" type="move" name="_bottom"/>
    </contour>
  </outline>
</glyph>
<glyph name="Delta" format="1">
  <advance width="686"/>
  <unicode hex="0394"/>
  <outline>
    <contour>
      <point x="330" y="699" type="line"/>
      <point x="10" y="0" type="line"/>
      <point x="34" y="0" type="line"/>
      <point x="341" y="676" type="line"/>
      <point x="653" y="0" type="line"/>
      <point x="676" y="0" type="line"/>
      <point x="352" y="699" type="line"/>
    </contour>
    <contour>
      <point x="25" y="20" type="line"/>
      <point x="25" y="0" type="line"/>
      <point x="660" y="0" type="line"/>
      <point x="660" y="20" type="line"/>
    </contour>
  </outline>
</glyph>
<glyph name="pi" format="1">
  <advance width="718"/>
  <unicode hex="03C0"/>
  <outline>
    <contour>
      <point x="162" y="517" type="line"/>
      <point x="70" y="517"/>
      <point x="-1" y="452"/>
      <point x="0" y="371" type="curve"/>
      <point x="1" y="335"/>
      <point x="15" y="297"/>
      <point x="37" y="269" type="curve"/>
      <point x="53" y="280" type="line"/>
      <point x="33" y="307"/>
      <point x="21" y="339"/>
      <point x="20" y="371" type="curve"/>
      <point x="19" y="442"/>
      <point x="80" y="497"/>
      <point x="162" y="497" type="curve"/>
      <point x="711" y="497" type="line"/>
      <point x="712" y="517" type="line"/>
    </contour>
    <contour>
      <point x="509" y="517" type="line"/>
      <point x="509" y="0" type="line"/>
      <point x="529" y="0" type="line"/>
      <point x="529" y="517" type="line"/>
    </contour>
    <contour>
      <point x="249" y="517" type="line"/>
      <point x="189" y="0" type="line"/>
      <point x="209" y="0" type="line"/>
      <point x="269" y="517" type="line"/>
    </contour>
  </outline>
</glyph>
<glyph name="dagger" format="1">
  <advance width="480"/>
  <unicode hex="2020"/>
  <outline>
    <contour>
      <point x="230" y="699" type="line"/>
      <point x="230" y="461" type="line"/>
      <point x="10" y="461" type="line"/>
      <point x="10" y="441" type="line"/>
      <point x="230" y="441" type="line"/>
      <point x="230" y="-194" type="line"/>
      <point x="250" y="-194" type="line"/>
      <point x="250" y="441" type="line"/>
      <point x="470" y="441" type="line"/>
      <point x="470" y="461" type="line"/>
      <point x="250" y="461" type="line"/>
      <point x="250" y="699" type="line"/>
    </contour>
  </outline>
</glyph>
<glyph name="guilsinglleft" format="1">
  <advance width="268"/>
  <unicode hex="2039"/>
  <outline>
    <contour>
      <point x="167" y="403" type="line"/>
      <point x="58" y="247" type="line"/>
      <point x="167" y="94" type="line"/>
      <point x="191" y="94" type="line"/>
      <point x="83" y="247" type="line"/>
      <point x="191" y="403" type="line"/>
    </contour>
  </outline>
</glyph>
<glyph name="fraction" format="1">
  <advance width="20"/>
  <unicode hex="2044"/>
  <outline>
    <contour>
      <point x="284" y="699" type="line"/>
      <point x="258" y="699" type="line"/>
      <point x="-280" y="0" type="line"/>
      <point x="-254" y="0" type="line"/>
    </contour>
  </outline>
</glyph>
<glyph name="Euro" format="1">
  <advance width="805"/>
  <unicode hex="20AC"/>
  <outline>
    <contour>
      <point x="312" y="699"/>
      <point x="150" y="542"/>
      <point x="150" y="350" type="curve" smooth="yes"/>
      <point x="150" y="158"/>
      <point x="312" y="0"/>
      <point x="509" y="0" type="curve" smooth="yes"/>
      <point x="601" y="0"/>
      <point x="686" y="35"/>
      <point x="750" y="91" type="curve"/>
      <point x="736" y="104" type="line"/>
      <point x="676" y="51"/>
      <point x="596" y="19"/>
      <point x="509" y="19" type="curve" smooth="yes"/>
      <point x="322" y="19"/>
      <point x="169" y="168"/>
      <point x="169" y="350" type="curve" smooth="yes"/>
      <point x="169" y="532"/>
      <point x="322" y="680"/>
      <point x="509" y="680" type="curve" smooth="yes"/>
      <point x="596" y="680"/>
      <point x="676" y="649"/>
      <point x="736" y="596" type="curve"/>
      <point x="749" y="609" type="line"/>
      <point x="685" y="665"/>
      <point x="601" y="699"/>
      <point x="509" y="699" type="curve" smooth="yes"/>
    </contour>
    <component base="equal" xOffset="8" yOffset="18" xScale="1.10"/>
  </outline>
</glyph>
<glyph name="trademark" format="1">
  <advance width="857"/>
  <unicode hex="2122"/>
  <outline>
    <contour>
      <point x="88" y="-137" type="move"/>
    </contour>
    <contour>
      <point x="754" y="699" type="line"/>
      <point x="585" y="358" type="line" smooth="yes"/>
      <point x="414" y="699" type="line"/>
      <point x="382" y="699" type="line"/>
      <point x="382" y="280" type="line"/>
      <point x="402" y="280" type="line"/>
      <point x="402" y="680" type="line"/>
      <point x="579" y="326" type="line"/>
      <point x="589" y="326" type="line"/>
      <point x="766" y="680" type="line"/>
      <point x="767" y="280" type="line"/>
      <point x="787" y="280" type="line"/>
      <point x="787" y="699" type="line"/>
    </contour>
    <contour>
      <point x="0" y="699" type="line"/>
      <point x="0" y="679" type="line"/>
      <point x="141" y="679" type="line"/>
      <point x="141" y="280" type="line"/>
      <point x="161" y="280" type="line"/>
      <point x="161" y="679" type="line"/>
      <point x="302" y="679" type="line"/>
      <point x="302" y="699" type="line"/>
    </contour>
  </outline>
</glyph>
<glyph name="Omega" format="1">
  <advance width="926"/>
  <unicode hex="2126"/>
  <outline>
    <contour>
      <point x="257" y="699"/>
      <point x="104" y="551"/>
      <point x="104" y="353" type="curve" smooth="yes"/>
      <point x="104" y="224"/>
      <point x="176" y="89"/>
      <point x="279" y="20" type="curve"/>
      <point x="13" y="20" type="line"/>
      <point x="13" y="0" type="line"/>
      <point x="318" y="0" type="line"/>
      <point x="318" y="20" type="line"/>
      <point x="205" y="78"/>
      <point x="124" y="218"/>
      <point x="124" y="353" type="curve" smooth="yes"/>
      <point x="124" y="541"/>
      <point x="267" y="679"/>
      <point x="463" y="679" type="curve" smooth="yes"/>
      <point x="659" y="679"/>
      <point x="802" y="541"/>
      <point x="802" y="353" type="curve" smooth="yes"/>
      <point x="802" y="218"/>
      <point x="721" y="79"/>
      <point x="609" y="21" type="curve"/>
      <point x="609" y="0" type="line"/>
      <point x="913" y="0" type="line"/>
      <point x="913" y="20" type="line"/>
      <point x="647" y="20" type="line"/>
      <point x="750" y="89"/>
      <point x="822" y="224"/>
      <point x="822" y="353" type="curve" smooth="yes"/>
      <point x="822" y="551"/>
      <point x="669" y="699"/>
      <point x="463" y="699" type="curve" smooth="yes"/>
    </contour>
    <contour>
      <point x="20" y="699" type="move" name="topleft"/>
    </contour>
  </outline>
</glyph>
<glyph name="product" format="1">
  <advance width="763"/>
  <unicode hex="220F"/>
  <outline>
    <contour>
      <point x="128" y="742" type="line"/>
      <point x="128" y="-194" type="line"/>
      <point x="148" y="-194" type="line"/>
      <point x="148" y="722" type="line"/>
      <point x="615" y="722" type="line"/>
      <point x="615" y="-194" type="line"/>
      <point x="635" y="-194" type="line"/>
      <point x="635" y="742" type="line"/>
    </contour>
  </outline>
</glyph>
<glyph name="summation" format="1">
  <advance width="603"/>
  <unicode hex="2211"/>
  <outline>
    <contour>
      <point x="43" y="742" type="line"/>
      <point x="43" y="718" type="line"/>
      <point x="384" y="313" type="line"/>
      <point x="40" y="-114" type="line"/>
      <point x="40" y="-138" type="line"/>
      <point x="603" y="-138" type="line"/>
      <point x="603" y="-118" type="line"/>
      <point x="63" y="-118" type="line"/>
      <point x="410" y="313" type="line"/>
      <point x="66" y="722" type="line"/>
      <point x="593" y="722" type="line"/>
      <point x="593" y="742" type="line"/>
    </contour>
  </outline>
</glyph>
<glyph name="radical" format="1">
  <advance width="658"/>
  <unicode hex="221A"/>
  <outline>
    <contour>
      <point x="25" y="361" type="line"/>
      <point x="144" y="361" type="line"/>
      <point x="318" y="-146" type="line"/>
      <point x="340" y="-146" type="line"/>
      <point x="632" y="757" type="line"/>
      <point x="610" y="757" type="line"/>
      <point x="329" y="-120" type="line"/>
      <point x="158" y="380" type="line"/>
      <point x="25" y="380" type="line"/>
    </contour>
  </outline>
</glyph>
<glyph name="infinity" format="1">
  <advance width="910"/>
  <unicode hex="221E"/>
  <outline>
    <contour>
      <point x="228" y="482" type="line"/>
      <point x="128" y="482"/>
      <point x="52" y="406"/>
      <point x="52" y="306" type="curve"/>
      <point x="52" y="206"/>
      <point x="128" y="130"/>
      <point x="228" y="130" type="curve"/>
      <point x="493" y="130"/>
      <point x="434" y="463"/>
      <point x="682" y="463" type="curve"/>
      <point x="772" y="463"/>
      <point x="838" y="397"/>
      <point x="838" y="307" type="curve"/>
      <point x="838" y="217"/>
      <point x="772" y="151"/>
      <point x="682" y="151" type="curve"/>
      <point x="434" y="151"/>
      <point x="493" y="482"/>
      <point x="228" y="482" type="curve"/>
      <point x="228" y="462" type="line"/>
      <point x="476" y="462"/>
      <point x="417" y="131"/>
      <point x="682" y="131" type="curve"/>
      <point x="782" y="131"/>
      <point x="858" y="207"/>
      <point x="858" y="307" type="curve"/>
      <point x="858" y="407"/>
      <point x="782" y="483"/>
      <point x="682" y="483" type="curve"/>
      <point x="417" y="483"/>
      <point x="476" y="150"/>
      <point x="228" y="150" type="curve"/>
      <point x="138" y="150"/>
      <point x="72" y="216"/>
      <point x="72" y="306" type="curve"/>
      <point x="72" y="396"/>
      <point x="138" y="462"/>
      <point x="228" y="462" type="curve"/>
    </contour>
  </outline>
</glyph>
<glyph name="approxequal" format="1">
  <advance width="480"/>
  <unicode hex="2248"/>
  <outline>
    <contour>
      <point x="109" y="276"/>
      <point x="83" y="246"/>
      <point x="83" y="196" type="curve"/>
      <point x="103" y="196" type="line"/>
      <point x="103" y="234"/>
      <point x="121" y="256"/>
      <point x="153" y="256" type="curve" smooth="yes"/>
      <point x="207" y="256"/>
      <point x="261" y="186"/>
      <point x="328" y="186" type="curve" smooth="yes"/>
      <point x="372" y="186"/>
      <point x="398" y="216"/>
      <point x="398" y="266" type="curve"/>
      <point x="378" y="266" type="line"/>
      <point x="378" y="228"/>
      <point x="360" y="206"/>
      <point x="328" y="206" type="curve" smooth="yes"/>
      <point x="275" y="206"/>
      <point x="212" y="276"/>
      <point x="153" y="276" type="curve" smooth="yes"/>
    </contour>
    <contour>
      <point x="109" y="477"/>
      <point x="83" y="447"/>
      <point x="83" y="397" type="curve"/>
      <point x="103" y="397" type="line"/>
      <point x="103" y="435"/>
      <point x="121" y="457"/>
      <point x="153" y="457" type="curve" smooth="yes"/>
      <point x="207" y="457"/>
      <point x="261" y="387"/>
      <point x="328" y="387" type="curve" smooth="yes"/>
      <point x="372" y="387"/>
      <point x="398" y="417"/>
      <point x="398" y="467" type="curve"/>
      <point x="378" y="467" type="line"/>
      <point x="378" y="429"/>
      <point x="360" y="407"/>
      <point x="328" y="407" type="curve" smooth="yes"/>
      <point x="275" y="407"/>
      <point x="212" y="477"/>
      <point x="153" y="477" type="curve" smooth="yes"/>
    </contour>
  </outline>
</glyph>
<glyph name="lozenge" format="1">
  <advance width="499"/>
  <unicode hex="25CA"/>
  <outline>
    <contour>
      <point x="52" y="330" type="line"/>
      <point x="249" y="34" type="line"/>
      <point x="447" y="330" type="line"/>
      <point x="250" y="623" type="line"/>
    </contour>
    <contour>
      <point x="423" y="330" type="line"/>
      <point x="249" y="70" type="line"/>
      <point x="76" y="330" type="line"/>
      <point x="250" y="589" type="line"/>
    </contour>
  </outline>
</glyph>
<glyph name="fl" format="1">
  <advance width="545"/>
  <unicode hex="FB02"/>
  <outline>
    <contour>
      <point x="182" y="753"/>
      <point x="117" y="682"/>
      <point x="117" y="590" type="curve"/>
      <point x="117" y="0" type="line"/>
      <point x="137" y="0" type="line"/>
      <point x="137" y="590" type="line"/>
      <point x="137" y="672"/>
      <point x="192" y="733"/>
      <point x="263" y="732" type="curve"/>
      <point x="295" y="731"/>
      <point x="327" y="719"/>
      <point x="353" y="699" type="curve"/>
      <point x="353" y="723" type="line"/>
      <point x="328" y="740"/>
      <point x="295" y="751"/>
      <point x="263" y="752" type="curve"/>
    </contour>
    <contour>
      <point x="52" y="517" type="line"/>
      <point x="52" y="497" type="line"/>
      <point x="305" y="497" type="line"/>
      <point x="305" y="517" type="line"/>
    </contour>
    <component base="l" xOffset="295"/>
  </outline>
</glyph>
<glyph name="A.ss01" format="1">
  <advance width="774"/>
  <outline>
    <contour>
      <point x="212" y="699"/>
      <point x="110" y="594"/>
      <point x="110" y="415" type="curve" smooth="yes"/>
      <point x="110" y="0" type="line"/>
      <point x="130" y="0" type="line"/>
      <point x="130" y="225" type="line"/>
      <point x="644" y="225" type="line"/>
      <point x="644" y="0" type="line"/>
      <point x="664" y="0" type="line"/>
      <point x="664" y="415" type="line" smooth="yes"/>
      <point x="664" y="594"/>
      <point x="562" y="699"/>
      <point x="387" y="699" type="curve" smooth="yes"/>
    </contour>
    <contour>
      <point x="549" y="679"/>
      <point x="644" y="581"/>
      <point x="644" y="415" type="curve" smooth="yes"/>
      <point x="644" y="245" type="line"/>
      <point x="130" y="245" type="line"/>
      <point x="130" y="415" type="line" smooth="yes"/>
      <point x="130" y="581"/>
      <point x="225" y="679"/>
      <point x="387" y="679" type="curve" smooth="yes"/>
    </contour>
    <contour>
      <point x="697" y="10" type="move" name="ogonek"/>
    </contour>
    <contour>
      <point x="387" y="699" type="move" name="top"/>
    </contour>
  </outline>
</glyph>
<glyph name="Aogonek.ss01" format="1">
  <advance width="774"/>
  <outline>
    <contour>
      <point x="212" y="699"/>
      <point x="110" y="594"/>
      <point x="110" y="415" type="curve" smooth="yes"/>
      <point x="110" y="0" type="line"/>
      <point x="130" y="0" type="line"/>
      <point x="130" y="225" type="line"/>
      <point x="644" y="225" type="line"/>
      <point x="644" y="0" type="line"/>
      <point x="645" y="0" type="line"/>
      <point x="601" y="-63"/>
      <point x="583" y="-99"/>
      <point x="583" y="-131" type="curve" smooth="yes"/>
      <point x="583" y="-172"/>
      <point x="611" y="-199"/>
      <point x="647" y="-199" type="curve" smooth="yes"/>
      <point x="674" y="-199"/>
      <point x="702" y="-181"/>
      <point x="721" y="-159" type="curve"/>
      <point x="707" y="-145" type="line"/>
      <point x="689" y="-165"/>
      <point x="669" y="-179"/>
      <point x="647" y="-179" type="curve" smooth="yes"/>
      <point x="622" y="-179"/>
      <point x="603" y="-162"/>
      <point x="603" y="-131" type="curve" smooth="yes"/>
      <point x="603" y="-102"/>
      <point x="612" y="-69"/>
      <point x="663" y="0" type="curve"/>
      <point x="664" y="0" type="line"/>
      <point x="664" y="415" type="line" smooth="yes"/>
      <point x="664" y="594"/>
      <point x="562" y="699"/>
      <point x="387" y="699" type="curve" smooth="yes"/>
    </contour>
    <contour>
      <point x="549" y="679"/>
      <point x="644" y="581"/>
      <point x="644" y="415" type="curve" smooth="yes"/>
      <point x="644" y="245" type="line"/>
      <point x="130" y="245" type="line"/>
      <point x="130" y="415" type="line" smooth="yes"/>
      <point x="130" y="581"/>
      <point x="225" y="679"/>
      <point x="387" y="679" type="curve" smooth="yes"/>
    </contour>
  </outline>
</glyph>
<glyph name="Eogonek.ss01" format="1">
  <advance width="538"/>
  <outline>
    <contour>
      <point x="185" y="699"/>
      <point x="90" y="627"/>
      <point x="90" y="528" type="curve" smooth="yes"/>
      <point x="90" y="450"/>
      <point x="157" y="383"/>
      <point x="249" y="370" type="curve"/>
      <point x="140" y="358"/>
      <point x="60" y="282"/>
      <point x="60" y="189" type="curve" smooth="yes"/>
      <point x="60" y="80"/>
      <point x="167" y="0"/>
      <point x="313" y="0" type="curve" smooth="yes"/>
      <point x="380" y="0"/>
      <point x="465" y="21"/>
      <point x="513" y="49" type="curve"/>
      <point x="503" y="67" type="line"/>
      <point x="453" y="40"/>
      <point x="373" y="20"/>
      <point x="313" y="20" type="curve" smooth="yes"/>
      <point x="178" y="20"/>
      <point x="80" y="91"/>
      <point x="80" y="189" type="curve" smooth="yes"/>
      <point x="80" y="288"/>
      <point x="180" y="360"/>
      <point x="317" y="360" type="curve" smooth="yes"/>
      <point x="426" y="360" type="line"/>
      <point x="426" y="380" type="line"/>
      <point x="317" y="380" type="line" smooth="yes"/>
      <point x="197" y="380"/>
      <point x="110" y="442"/>
      <point x="110" y="528" type="curve" smooth="yes"/>
      <point x="110" y="615"/>
      <point x="196" y="679"/>
      <point x="315" y="679" type="curve" smooth="yes"/>
      <point x="369" y="679"/>
      <point x="435" y="665"/>
      <point x="471" y="646" type="curve"/>
      <point x="481" y="664" type="line"/>
      <point x="441" y="684"/>
      <point x="371" y="699"/>
      <point x="315" y="699" type="curve" smooth="yes"/>
    </contour>
    <contour>
      <point x="426" y="28" type="line"/>
      <point x="367" y="-47"/>
      <point x="346" y="-92"/>
      <point x="346" y="-131" type="curve" smooth="yes"/>
      <point x="346" y="-172"/>
      <point x="374" y="-199"/>
      <point x="410" y="-199" type="curve" smooth="yes"/>
      <point x="437" y="-199"/>
      <point x="465" y="-181"/>
      <point x="484" y="-159" type="curve"/>
      <point x="470" y="-145" type="line"/>
      <point x="452" y="-165"/>
      <point x="432" y="-179"/>
      <point x="410" y="-179" type="curve" smooth="yes"/>
      <point x="385" y="-179"/>
      <point x="366" y="-162"/>
      <point x="366" y="-131" type="curve" smooth="yes"/>
      <point x="366" y="-93"/>
      <point x="383" y="-50"/>
      <point x="451" y="32" type="curve"/>
    </contour>
  </outline>
</glyph>
<glyph name="F.ss01" format="1">
  <advance width="490"/>
  <outline>
    <contour>
      <point x="129" y="0" type="line"/>
      <point x="129" y="502" type="line"/>
      <point x="129" y="609"/>
      <point x="197" y="679"/>
      <point x="301" y="679" type="curve"/>
      <point x="355" y="679"/>
      <point x="420" y="663"/>
      <point x="466" y="639" type="curve"/>
      <point x="475" y="659" type="line"/>
      <point x="425" y="683"/>
      <point x="361" y="699"/>
      <point x="301" y="699" type="curve"/>
      <point x="185" y="699"/>
      <point x="110" y="622"/>
      <point x="110" y="502" type="curve"/>
      <point x="110" y="0" type="line"/>
    </contour>
    <contour>
      <point x="125" y="342" type="line"/>
      <point x="125" y="322" type="line"/>
      <point x="423" y="322" type="line"/>
      <point x="423" y="342" type="line"/>
    </contour>
  </outline>
</glyph>
<glyph name="J.ss01" format="1">
  <advance width="458"/>
  <outline>
    <contour>
      <point x="67" y="699" type="line"/>
      <point x="67" y="679" type="line"/>
      <point x="329" y="679" type="line"/>
      <point x="329" y="97" type="line"/>
      <point x="329" y="-18"/>
      <point x="275" y="-80"/>
      <point x="177" y="-80" type="curve"/>
      <point x="114" y="-80"/>
      <point x="58" y="-48"/>
      <point x="17" y="12" type="curve"/>
      <point x="3" y="-2" type="line"/>
      <point x="47" y="-65"/>
      <point x="109" y="-100"/>
      <point x="177" y="-100" type="curve"/>
      <point x="288" y="-100"/>
      <point x="348" y="-30"/>
      <point x="348" y="97" type="curve"/>
      <point x="348" y="699" type="line"/>
    </contour>
    <contour>
      <point x="229" y="699" type="move" name="top"/>
    </contour>
  </outline>
</glyph>
<glyph name="M.ss01" format="1">
  <advance width="1227"/>
  <outline>
    <contour>
      <point x="245" y="695"/>
      <point x="129" y="580"/>
      <point x="129" y="425" type="curve"/>
      <point x="147" y="425" type="line"/>
      <point x="147" y="568"/>
      <point x="255" y="675"/>
      <point x="402" y="679" type="curve"/>
      <point x="523" y="679"/>
      <point x="612" y="580"/>
      <point x="612" y="445" type="curve"/>
      <point x="612" y="0" type="line" smooth="yes"/>
      <point x="632" y="0" type="line"/>
      <point x="632" y="445" type="line"/>
      <point x="632" y="592"/>
      <point x="535" y="699"/>
      <point x="402" y="699" type="curve"/>
    </contour>
    <contour>
      <point x="730" y="695"/>
      <point x="614" y="580"/>
      <point x="614" y="425" type="curve"/>
      <point x="632" y="425" type="line"/>
      <point x="632" y="568"/>
      <point x="740" y="675"/>
      <point x="887" y="679" type="curve"/>
      <point x="1008" y="679"/>
      <point x="1097" y="580"/>
      <point x="1097" y="445" type="curve"/>
      <point x="1097" y="0" type="line" smooth="yes"/>
      <point x="1117" y="0" type="line"/>
      <point x="1117" y="445" type="line"/>
      <point x="1117" y="592"/>
      <point x="1020" y="699"/>
      <point x="887" y="699" type="curve"/>
    </contour>
    <contour>
      <point x="128" y="699" type="line"/>
      <point x="128" y="0" type="line"/>
      <point x="148" y="0" type="line"/>
      <point x="148" y="699" type="line"/>
    </contour>
    <contour>
      <point x="206" y="10" type="move" name="ogonek"/>
    </contour>
    <contour>
      <point x="138" y="699" type="move" name="top"/>
    </contour>
  </outline>
</glyph>
<glyph name="N.ss01" format="1">
  <advance width="792"/>
  <outline>
    <contour>
      <point x="257" y="695"/>
      <point x="129" y="580"/>
      <point x="129" y="425" type="curve"/>
      <point x="147" y="425" type="line"/>
      <point x="147" y="568"/>
      <point x="267" y="675"/>
      <point x="432" y="679" type="curve"/>
      <point x="565" y="679"/>
      <point x="662" y="580"/>
      <point x="662" y="445" type="curve"/>
      <point x="662" y="0" type="line" smooth="yes"/>
      <point x="682" y="0" type="line"/>
      <point x="682" y="445" type="line"/>
      <point x="682" y="592"/>
      <point x="577" y="699"/>
      <point x="432" y="699" type="curve"/>
    </contour>
    <contour>
      <point x="128" y="699" type="line"/>
      <point x="128" y="0" type="line"/>
      <point x="148" y="0" type="line"/>
      <point x="148" y="699" type="line"/>
    </contour>
    <contour>
      <point x="206" y="10" type="move" name="ogonek"/>
    </contour>
    <contour>
      <point x="396" y="0" type="move" name="bottom"/>
    </contour>
    <contour>
      <point x="396" y="699" type="move" name="top"/>
    </contour>
  </outline>
</glyph>
<glyph name="Q.ss01" format="1">
  <advance width="818"/>
  <outline>
    <contour>
      <point x="399" y="-135" type="line"/>
      <point x="419" y="-135" type="line"/>
      <point x="419" y="224" type="line"/>
      <point x="399" y="224" type="line"/>
    </contour>
    <component base="O"/>
  </outline>
</glyph>
<glyph name="T.ss01" format="1">
  <advance width="602"/>
  <outline>
    <contour>
      <point x="210" y="699"/>
      <point x="118" y="677"/>
      <point x="42" y="637" type="curve"/>
      <point x="50" y="620" type="line"/>
      <point x="125" y="658"/>
      <point x="215" y="679"/>
      <point x="300" y="679" type="curve" smooth="yes"/>
      <point x="387" y="679"/>
      <point x="478" y="658"/>
      <point x="552" y="620" type="curve"/>
      <point x="560" y="636" type="line"/>
      <point x="483" y="677"/>
      <point x="391" y="699"/>
      <point x="300" y="699" type="curve" smooth="yes"/>
    </contour>
    <contour>
      <point x="291" y="686" type="line"/>
      <point x="291" y="0" type="line"/>
      <point x="311" y="0" type="line"/>
      <point x="311" y="686" type="line"/>
    </contour>
    <contour>
      <point x="301" y="350" type="move" name="center"/>
    </contour>
    <contour>
      <point x="286" y="0" type="move" name="bottom"/>
    </contour>
    <contour>
      <point x="301" y="699" type="move" name="top"/>
    </contour>
  </outline>
</glyph>
<glyph name="U.ss01" format="1">
  <advance width="792"/>
  <outline>
    <component base="N.ss01" xOffset="792" yOffset="699" xScale="-1" yScale="-1"/>
    <contour>
      <point x="722" y="10" type="move" name="ogonek"/>
    </contour>
    <contour>
      <point x="396" y="699" type="move" name="top"/>
    </contour>
  </outline>
</glyph>
<glyph name="W.ss01" format="1">
  <advance width="1202"/>
  <outline>
    <contour>
      <point x="1072" y="699" type="line"/>
      <point x="1072" y="234" type="line" smooth="yes"/>
      <point x="1072" y="104"/>
      <point x="983" y="20"/>
      <point x="845" y="20" type="curve" smooth="yes"/>
      <point x="704" y="20"/>
      <point x="612" y="104"/>
      <point x="612" y="234" type="curve" smooth="yes"/>
      <point x="612" y="699" type="line"/>
      <point x="592" y="699" type="line"/>
      <point x="592" y="234" type="line" smooth="yes"/>
      <point x="592" y="104"/>
      <point x="500" y="20"/>
      <point x="357" y="20" type="curve" smooth="yes"/>
      <point x="219" y="20"/>
      <point x="130" y="104"/>
      <point x="130" y="234" type="curve" smooth="yes"/>
      <point x="130" y="699" type="line"/>
      <point x="110" y="699" type="line"/>
      <point x="110" y="234" type="line" smooth="yes"/>
      <point x="110" y="92"/>
      <point x="207" y="0"/>
      <point x="357" y="0" type="curve" smooth="yes"/>
      <point x="478" y="0"/>
      <point x="574" y="61"/>
      <point x="602" y="155" type="curve"/>
      <point x="629" y="61"/>
      <point x="724" y="0"/>
      <point x="845" y="0" type="curve" smooth="yes"/>
      <point x="995" y="0"/>
      <point x="1092" y="92"/>
      <point x="1092" y="234" type="curve" smooth="yes"/>
      <point x="1092" y="699" type="line"/>
    </contour>
    <contour>
      <point x="601" y="699" type="move" name="top"/>
    </contour>
  </outline>
</glyph>
<glyph name="Y.ss01" format="1">
  <advance width="734"/>
  <outline>
    <contour>
      <point x="510" y="163"/>
      <point x="624" y="278"/>
      <point x="624" y="434" type="curve"/>
      <point x="606" y="434" type="line"/>
      <point x="606" y="290"/>
      <point x="499" y="183"/>
      <point x="353" y="180" type="curve"/>
      <point x="224" y="180"/>
      <point x="130" y="279"/>
      <point x="130" y="414" type="curve"/>
      <point x="130" y="699" type="line" smooth="yes"/>
      <point x="110" y="699" type="line"/>
      <point x="110" y="414" type="line"/>
      <point x="110" y="267"/>
      <point x="212" y="160"/>
      <point x="353" y="160" type="curve"/>
    </contour>
    <contour>
      <point x="605" y="699" type="line"/>
      <point x="605" y="147" type="line"/>
      <point x="605" y="16"/>
      <point x="507" y="-80"/>
      <point x="373" y="-80" type="curve"/>
      <point x="277" y="-80"/>
      <point x="173" y="-34"/>
      <point x="127" y="28" type="curve"/>
      <point x="112" y="14" type="line"/>
      <point x="159" y="-52"/>
      <point x="269" y="-100"/>
      <point x="373" y="-100" type="curve"/>
      <point x="518" y="-100"/>
      <point x="624" y="4"/>
      <point x="624" y="147" type="curve"/>
      <point x="624" y="699" type="line"/>
    </contour>
    <contour>
      <point x="367" y="699" type="move" name="top"/>
    </contour>
  </outline>
</glyph>
<glyph name="Z.ss01" format="1">
  <advance width="650"/>
  <outline>
    <contour>
      <point x="323" y="359" type="line"/>
      <point x="323" y="339" type="line"/>
      <point x="535" y="339" type="line"/>
      <point x="535" y="359" type="line"/>
    </contour>
    <contour>
      <point x="116" y="362" type="line"/>
      <point x="116" y="342" type="line"/>
      <point x="327" y="342" type="line"/>
      <point x="327" y="362" type="line"/>
    </contour>
    <contour>
      <point x="66" y="699" type="line"/>
      <point x="66" y="679" type="line"/>
      <point x="575" y="679" type="line"/>
      <point x="52" y="25" type="line"/>
      <point x="52" y="0" type="line"/>
      <point x="598" y="0" type="line"/>
      <point x="598" y="20" type="line"/>
      <point x="72" y="20" type="line"/>
      <point x="595" y="674" type="line"/>
      <point x="595" y="699" type="line"/>
    </contour>
    <contour>
      <point x="325" y="699" type="move" name="top"/>
    </contour>
  </outline>
</glyph>
<glyph name="ae.ss01" format="1">
  <advance width="974"/>
  <outline>
    <contour>
      <point x="558" y="124" type="move"/>
    </contour>
    <contour>
      <point x="257" y="282" type="line"/>
      <point x="138" y="282"/>
      <point x="63" y="233"/>
      <point x="63" y="149" type="curve"/>
      <point x="63" y="63"/>
      <point x="132" y="0"/>
      <point x="233" y="0" type="curve"/>
      <point x="342" y="0"/>
      <point x="429" y="48"/>
      <point x="473" y="161" type="curve"/>
      <point x="467" y="199" type="line"/>
      <point x="422" y="65"/>
      <point x="341" y="20"/>
      <point x="233" y="20" type="curve"/>
      <point x="142" y="20"/>
      <point x="83" y="73"/>
      <point x="83" y="149" type="curve"/>
      <point x="83" y="221"/>
      <point x="146" y="262"/>
      <point x="257" y="262" type="curve"/>
      <point x="462" y="262" type="line"/>
      <point x="462" y="282" type="line"/>
    </contour>
    <contour>
      <point x="101" y="425" type="line"/>
      <point x="158" y="469"/>
      <point x="214" y="497"/>
      <point x="284" y="497" type="curve"/>
      <point x="394" y="497"/>
      <point x="449" y="440"/>
      <point x="450" y="345" type="curve"/>
      <point x="450" y="259" type="line"/>
      <point x="470" y="259" type="line"/>
      <point x="470" y="345" type="line"/>
      <point x="469" y="450"/>
      <point x="404" y="517"/>
      <point x="284" y="517" type="curve"/>
      <point x="210" y="517"/>
      <point x="148" y="487"/>
      <point x="89" y="441" type="curve"/>
    </contour>
    <contour>
      <point x="843" y="50"/>
      <point x="780" y="20"/>
      <point x="705" y="20" type="curve" smooth="yes"/>
      <point x="568" y="20"/>
      <point x="472" y="119"/>
      <point x="472" y="259" type="curve" smooth="yes"/>
      <point x="472" y="398"/>
      <point x="568" y="497"/>
      <point x="702" y="497" type="curve" smooth="yes"/>
      <point x="795" y="497"/>
      <point x="871" y="451"/>
      <point x="900" y="371" type="curve"/>
      <point x="464" y="193" type="line"/>
      <point x="471" y="175" type="line"/>
      <point x="926" y="360" type="line"/>
      <point x="897" y="457"/>
      <point x="809" y="517"/>
      <point x="703" y="517" type="curve" smooth="yes"/>
      <point x="558" y="517"/>
      <point x="452" y="408"/>
      <point x="452" y="259" type="curve" smooth="yes"/>
      <point x="452" y="109"/>
      <point x="558" y="0"/>
      <point x="704" y="0" type="curve" smooth="yes"/>
      <point x="785" y="0"/>
      <point x="854" y="33"/>
      <point x="909" y="104" type="curve"/>
      <point x="892" y="115" type="line"/>
    </contour>
    <contour>
      <point x="487" y="517" type="move" name="top"/>
    </contour>
  </outline>
</glyph>
<glyph name="bp.util" format="1">
  <advance width="604"/>
  <outline>
    <contour>
      <point x="156" y="517"/>
      <point x="50" y="408"/>
      <point x="50" y="258" type="curve"/>
      <point x="50" y="109"/>
      <point x="156" y="0"/>
      <point x="301" y="0" type="curve" smooth="yes"/>
      <point x="446" y="0"/>
      <point x="552" y="109"/>
      <point x="552" y="258" type="curve" smooth="yes"/>
      <point x="552" y="408"/>
      <point x="446" y="517"/>
      <point x="301" y="517" type="curve" smooth="yes"/>
    </contour>
    <contour>
      <point x="435" y="497"/>
      <point x="532" y="396"/>
      <point x="532" y="258" type="curve" smooth="yes"/>
      <point x="532" y="120"/>
      <point x="435" y="20"/>
      <point x="301" y="20" type="curve" smooth="yes"/>
      <point x="167" y="20"/>
      <point x="70" y="120"/>
      <point x="70" y="258" type="curve" smooth="yes"/>
      <point x="70" y="396"/>
      <point x="167" y="497"/>
      <point x="301" y="497" type="curve" smooth="yes"/>
    </contour>
  </outline>
</glyph>
<glyph name="dq.util" format="1">
  <advance width="610"/>
  <outline>
    <contour>
      <point x="159" y="519"/>
      <point x="52" y="409"/>
      <point x="52" y="258" type="curve" smooth="yes"/>
      <point x="52" y="108"/>
      <point x="159" y="-2"/>
      <point x="305" y="-2" type="curve" smooth="yes"/>
      <point x="451" y="-2"/>
      <point x="558" y="108"/>
      <point x="558" y="258" type="curve"/>
      <point x="558" y="409"/>
      <point x="451" y="519"/>
      <point x="305" y="519" type="curve" smooth="yes"/>
    </contour>
    <contour>
      <point x="440" y="499"/>
      <point x="538" y="397"/>
      <point x="538" y="258" type="curve" smooth="yes"/>
      <point x="538" y="119"/>
      <point x="440" y="18"/>
      <point x="305" y="18" type="curve" smooth="yes"/>
      <point x="170" y="18"/>
      <point x="72" y="119"/>
      <point x="72" y="258" type="curve" smooth="yes"/>
      <point x="72" y="397"/>
      <point x="170" y="499"/>
      <point x="305" y="499" type="curve" smooth="yes"/>
    </contour>
  </outline>
</glyph>
<glyph name="e.ss01" format="1">
  <advance width="592"/>
  <outline>
    <contour>
      <point x="71" y="175" type="line"/>
      <point x="526" y="360" type="line"/>
      <point x="497" y="457"/>
      <point x="409" y="517"/>
      <point x="303" y="517" type="curve" smooth="yes"/>
      <point x="158" y="517"/>
      <point x="52" y="408"/>
      <point x="52" y="259" type="curve" smooth="yes"/>
      <point x="52" y="109"/>
      <point x="158" y="0"/>
      <point x="304" y="0" type="curve" smooth="yes"/>
      <point x="385" y="0"/>
      <point x="454" y="33"/>
      <point x="509" y="104" type="curve"/>
      <point x="492" y="115" type="line"/>
      <point x="443" y="50"/>
      <point x="380" y="20"/>
      <point x="305" y="20" type="curve" smooth="yes"/>
      <point x="168" y="20"/>
      <point x="72" y="119"/>
      <point x="72" y="259" type="curve" smooth="yes"/>
      <point x="72" y="398"/>
      <point x="168" y="497"/>
      <point x="302" y="497" type="curve" smooth="yes"/>
      <point x="395" y="497"/>
      <point x="471" y="451"/>
      <point x="500" y="371" type="curve"/>
      <point x="64" y="193" type="line"/>
    </contour>
    <contour>
      <point x="533" y="10" type="move" name="ogonek"/>
    </contour>
    <contour>
      <point x="296" y="0" type="move" name="bottom"/>
    </contour>
    <contour>
      <point x="296" y="517" type="move" name="top"/>
    </contour>
  </outline>
</glyph>
<glyph name="eight.dnom" format="1">
  <advance width="393"/>
  <outline>
    <contour>
      <point x="118" y="406"/>
      <point x="69" y="370"/>
      <point x="69" y="309" type="curve" smooth="yes"/>
      <point x="69" y="262"/>
      <point x="97" y="232"/>
      <point x="145" y="217" type="curve"/>
      <point x="86" y="203"/>
      <point x="50" y="167"/>
      <point x="50" y="113" type="curve" smooth="yes"/>
      <point x="50" y="41"/>
      <point x="105" y="0"/>
      <point x="197" y="0" type="curve" smooth="yes"/>
      <point x="288" y="0"/>
      <point x="343" y="41"/>
      <point x="343" y="113" type="curve" smooth="yes"/>
      <point x="343" y="167"/>
      <point x="308" y="203"/>
      <point x="249" y="217" type="curve"/>
      <point x="296" y="232"/>
      <point x="324" y="262"/>
      <point x="324" y="308" type="curve" smooth="yes"/>
      <point x="324" y="370"/>
      <point x="275" y="406"/>
      <point x="197" y="406" type="curve" smooth="yes"/>
    </contour>
    <contour>
      <point x="276" y="206"/>
      <point x="323" y="171"/>
      <point x="323" y="114" type="curve" smooth="yes"/>
      <point x="323" y="53"/>
      <point x="275" y="18"/>
      <point x="197" y="18" type="curve" smooth="yes"/>
      <point x="117" y="18"/>
      <point x="70" y="54"/>
      <point x="70" y="115" type="curve" smooth="yes"/>
      <point x="70" y="171"/>
      <point x="118" y="206"/>
      <point x="196" y="206" type="curve" smooth="yes"/>
    </contour>
    <contour>
      <point x="264" y="389"/>
      <point x="305" y="358"/>
      <point x="305" y="307" type="curve" smooth="yes"/>
      <point x="305" y="255"/>
      <point x="264" y="224"/>
      <point x="197" y="224" type="curve" smooth="yes"/>
      <point x="129" y="224"/>
      <point x="88" y="255"/>
      <point x="88" y="307" type="curve" smooth="yes"/>
      <point x="88" y="358"/>
      <point x="129" y="389"/>
      <point x="197" y="389" type="curve" smooth="yes"/>
    </contour>
  </outline>
</glyph>
<glyph name="eight.numr" format="1">
  <advance width="393"/>
  <outline>
    <contour>
      <point x="118" y="699"/>
      <point x="69" y="663"/>
      <point x="69" y="602" type="curve" smooth="yes"/>
      <point x="69" y="555"/>
      <point x="97" y="525"/>
      <point x="145" y="510" type="curve"/>
      <point x="86" y="496"/>
      <point x="50" y="460"/>
      <point x="50" y="406" type="curve" smooth="yes"/>
      <point x="50" y="334"/>
      <point x="105" y="293"/>
      <point x="197" y="293" type="curve" smooth="yes"/>
      <point x="288" y="293"/>
      <point x="343" y="334"/>
      <point x="343" y="406" type="curve" smooth="yes"/>
      <point x="343" y="460"/>
      <point x="308" y="496"/>
      <point x="249" y="510" type="curve"/>
      <point x="296" y="525"/>
      <point x="324" y="555"/>
      <point x="324" y="601" type="curve" smooth="yes"/>
      <point x="324" y="663"/>
      <point x="275" y="699"/>
      <point x="197" y="699" type="curve" smooth="yes"/>
    </contour>
    <contour>
      <point x="276" y="499"/>
      <point x="323" y="464"/>
      <point x="323" y="407" type="curve" smooth="yes"/>
      <point x="323" y="346"/>
      <point x="275" y="311"/>
      <point x="197" y="311" type="curve" smooth="yes"/>
      <point x="117" y="311"/>
      <point x="70" y="347"/>
      <point x="70" y="408" type="curve" smooth="yes"/>
      <point x="70" y="464"/>
      <point x="118" y="499"/>
      <point x="196" y="499" type="curve" smooth="yes"/>
    </contour>
    <contour>
      <point x="264" y="682"/>
      <point x="305" y="651"/>
      <point x="305" y="600" type="curve" smooth="yes"/>
      <point x="305" y="548"/>
      <point x="264" y="517"/>
      <point x="197" y="517" type="curve" smooth="yes"/>
      <point x="129" y="517"/>
      <point x="88" y="548"/>
      <point x="88" y="600" type="curve" smooth="yes"/>
      <point x="88" y="651"/>
      <point x="129" y="682"/>
      <point x="197" y="682" type="curve" smooth="yes"/>
    </contour>
  </outline>
</glyph>
<glyph name="eight.ss01" format="1">
  <advance width="601"/>
  <outline>
    <contour>
      <point x="172" y="699"/>
      <point x="92" y="638"/>
      <point x="92" y="533" type="curve" smooth="yes"/>
      <point x="92" y="451"/>
      <point x="140" y="399"/>
      <point x="221" y="374" type="curve"/>
      <point x="121" y="350"/>
      <point x="60" y="289"/>
      <point x="60" y="194" type="curve" smooth="yes"/>
      <point x="60" y="71"/>
      <point x="151" y="0"/>
      <point x="301" y="0" type="curve" smooth="yes"/>
      <point x="450" y="0"/>
      <point x="541" y="71"/>
      <point x="541" y="194" type="curve" smooth="yes"/>
      <point x="541" y="289"/>
      <point x="480" y="350"/>
      <point x="380" y="374" type="curve"/>
      <point x="461" y="399"/>
      <point x="509" y="451"/>
      <point x="509" y="533" type="curve" smooth="yes"/>
      <point x="509" y="638"/>
      <point x="430" y="699"/>
      <point x="301" y="699" type="curve" smooth="yes"/>
    </contour>
    <contour>
      <point x="438" y="361"/>
      <point x="521" y="297"/>
      <point x="521" y="195" type="curve" smooth="yes"/>
      <point x="521" y="85"/>
      <point x="437" y="20"/>
      <point x="301" y="20" type="curve" smooth="yes"/>
      <point x="163" y="20"/>
      <point x="80" y="86"/>
      <point x="80" y="196" type="curve" smooth="yes"/>
      <point x="80" y="298"/>
      <point x="164" y="361"/>
      <point x="300" y="361" type="curve" smooth="yes"/>
    </contour>
    <contour>
      <point x="418" y="679"/>
      <point x="489" y="623"/>
      <point x="489" y="531" type="curve" smooth="yes"/>
      <point x="489" y="438"/>
      <point x="418" y="381"/>
      <point x="301" y="381" type="curve" smooth="yes"/>
      <point x="184" y="381"/>
      <point x="112" y="438"/>
      <point x="112" y="531" type="curve" smooth="yes"/>
      <point x="112" y="623"/>
      <point x="184" y="679"/>
      <point x="301" y="679" type="curve" smooth="yes"/>
    </contour>
  </outline>
</glyph>
<glyph name="eogonek.ss01" format="1">
  <advance width="592"/>
  <outline>
    <contour>
      <point x="168" y="20"/>
      <point x="72" y="119"/>
      <point x="72" y="259" type="curve" smooth="yes"/>
      <point x="72" y="398"/>
      <point x="168" y="497"/>
      <point x="302" y="497" type="curve" smooth="yes"/>
      <point x="395" y="497"/>
      <point x="471" y="451"/>
      <point x="500" y="371" type="curve"/>
      <point x="64" y="193" type="line"/>
      <point x="71" y="175" type="line"/>
      <point x="526" y="360" type="line"/>
      <point x="497" y="457"/>
      <point x="409" y="517"/>
      <point x="303" y="517" type="curve" smooth="yes"/>
      <point x="158" y="517"/>
      <point x="52" y="408"/>
      <point x="52" y="259" type="curve" smooth="yes"/>
      <point x="52" y="109"/>
      <point x="158" y="0"/>
      <point x="304" y="0" type="curve"/>
      <point x="363" y="0"/>
      <point x="416" y="18"/>
      <point x="460" y="51" type="curve"/>
      <point x="404" y="-28"/>
      <point x="385" y="-84"/>
      <point x="385" y="-131" type="curve" smooth="yes"/>
      <point x="385" y="-172"/>
      <point x="413" y="-199"/>
      <point x="449" y="-199" type="curve" smooth="yes"/>
      <point x="475" y="-199"/>
      <point x="503" y="-181"/>
      <point x="522" y="-159" type="curve"/>
      <point x="508" y="-145" type="line"/>
      <point x="490" y="-165"/>
      <point x="470" y="-179"/>
      <point x="449" y="-179" type="curve" smooth="yes"/>
      <point x="424" y="-179"/>
      <point x="405" y="-162"/>
      <point x="405" y="-131" type="curve" smooth="yes"/>
      <point x="405" y="-81"/>
      <point x="421" y="-23"/>
      <point x="501" y="81" type="curve"/>
      <point x="487" y="95" type="line"/>
      <point x="444" y="47"/>
      <point x="380" y="20"/>
      <point x="305" y="20" type="curve"/>
    </contour>
  </outline>
</glyph>
<glyph name="f.ss01" format="1">
  <advance width="276"/>
  <outline>
    <contour>
      <point x="163" y="753"/>
      <point x="98" y="682"/>
      <point x="98" y="590" type="curve"/>
      <point x="98" y="0" type="line"/>
      <point x="118" y="0" type="line"/>
      <point x="118" y="590" type="line"/>
      <point x="118" y="672"/>
      <point x="173" y="733"/>
      <point x="244" y="732" type="curve"/>
      <point x="276" y="731"/>
      <point x="308" y="719"/>
      <point x="334" y="699" type="curve"/>
      <point x="346" y="715" type="line"/>
      <point x="318" y="737"/>
      <point x="280" y="751"/>
      <point x="244" y="752" type="curve"/>
    </contour>
    <contour>
      <point x="103" y="507" type="line"/>
      <point x="103" y="487" type="line"/>
      <point x="286" y="487" type="line"/>
      <point x="286" y="507" type="line"/>
    </contour>
  </outline>
</glyph>
<glyph name="five.dnom" format="1">
  <advance width="360"/>
  <outline>
    <contour>
      <point x="296" y="406" type="line"/>
      <point x="67" y="406" type="line"/>
      <point x="67" y="206" type="line"/>
      <point x="99" y="218"/>
      <point x="143" y="225"/>
      <point x="172" y="225" type="curve"/>
      <point x="244" y="225"/>
      <point x="290" y="188"/>
      <point x="290" y="130" type="curve"/>
      <point x="290" y="62"/>
      <point x="244" y="19"/>
      <point x="171" y="19" type="curve"/>
      <point x="133" y="19"/>
      <point x="85" y="34"/>
      <point x="50" y="58" type="curve"/>
      <point x="40" y="41" type="line"/>
      <point x="78" y="17"/>
      <point x="130" y="1"/>
      <point x="172" y="1" type="curve"/>
      <point x="257" y="1"/>
      <point x="311" y="52"/>
      <point x="311" y="131" type="curve"/>
      <point x="311" y="199"/>
      <point x="258" y="243"/>
      <point x="174" y="243" type="curve"/>
      <point x="150" y="243"/>
      <point x="115" y="237"/>
      <point x="88" y="228" type="curve"/>
      <point x="88" y="387" type="line"/>
      <point x="296" y="387" type="line"/>
    </contour>
  </outline>
</glyph>
<glyph name="five.numr" format="1">
  <advance width="360"/>
  <outline>
    <contour>
      <point x="296" y="699" type="line"/>
      <point x="67" y="699" type="line"/>
      <point x="67" y="499" type="line"/>
      <point x="99" y="511"/>
      <point x="143" y="518"/>
      <point x="172" y="518" type="curve"/>
      <point x="244" y="518"/>
      <point x="290" y="481"/>
      <point x="290" y="423" type="curve"/>
      <point x="290" y="355"/>
      <point x="244" y="312"/>
      <point x="171" y="312" type="curve"/>
      <point x="133" y="312"/>
      <point x="85" y="327"/>
      <point x="50" y="351" type="curve"/>
      <point x="40" y="334" type="line"/>
      <point x="78" y="310"/>
      <point x="130" y="294"/>
      <point x="172" y="294" type="curve"/>
      <point x="257" y="294"/>
      <point x="311" y="345"/>
      <point x="311" y="424" type="curve"/>
      <point x="311" y="492"/>
      <point x="258" y="536"/>
      <point x="174" y="536" type="curve"/>
      <point x="150" y="536"/>
      <point x="115" y="530"/>
      <point x="88" y="521" type="curve"/>
      <point x="88" y="680" type="line"/>
      <point x="296" y="680" type="line"/>
    </contour>
  </outline>
</glyph>
<glyph name="five.ss01" format="1">
  <advance width="547"/>
  <outline>
    <contour>
      <point x="89" y="599" type="line"/>
      <point x="89" y="261" type="line"/>
      <point x="143" y="283"/>
      <point x="211" y="297"/>
      <point x="262" y="297" type="curve"/>
      <point x="386" y="297"/>
      <point x="467" y="229"/>
      <point x="467" y="124" type="curve"/>
      <point x="467" y="1"/>
      <point x="386" y="-78"/>
      <point x="260" y="-78" type="curve"/>
      <point x="196" y="-78"/>
      <point x="115" y="-53"/>
      <point x="55" y="-14" type="curve"/>
      <point x="45" y="-30" type="line"/>
      <point x="107" y="-71"/>
      <point x="191" y="-98"/>
      <point x="260" y="-98" type="curve"/>
      <point x="398" y="-98"/>
      <point x="487" y="-11"/>
      <point x="487" y="124" type="curve"/>
      <point x="487" y="241"/>
      <point x="399" y="317"/>
      <point x="262" y="317" type="curve"/>
      <point x="218" y="317"/>
      <point x="158" y="306"/>
      <point x="109" y="289" type="curve"/>
      <point x="109" y="579" type="line"/>
      <point x="462" y="579" type="line"/>
      <point x="462" y="599" type="line"/>
    </contour>
  </outline>
</glyph>
<glyph name="fl.ss01" format="1">
  <advance width="555"/>
  <outline>
    <contour>
      <point x="529" y="-49" type="line"/>
      <point x="510" y="-69"/>
      <point x="489" y="-80"/>
      <point x="470" y="-80" type="curve" smooth="yes"/>
      <point x="435" y="-80"/>
      <point x="416" y="-57"/>
      <point x="416" y="-10" type="curve" smooth="yes"/>
      <point x="416" y="602" type="line" smooth="yes"/>
      <point x="416" y="691"/>
      <point x="358" y="750"/>
      <point x="269" y="752" type="curve" smooth="yes"/>
      <point x="177" y="753"/>
      <point x="117" y="689"/>
      <point x="117" y="590" type="curve" smooth="yes"/>
      <point x="117" y="507" type="line"/>
      <point x="52" y="507" type="line"/>
      <point x="52" y="487" type="line"/>
      <point x="117" y="487" type="line"/>
      <point x="117" y="0" type="line"/>
      <point x="137" y="0" type="line"/>
      <point x="137" y="487" type="line"/>
      <point x="275" y="487" type="line"/>
      <point x="275" y="507" type="line"/>
      <point x="137" y="507" type="line"/>
      <point x="137" y="590" type="line" smooth="yes"/>
      <point x="137" y="677"/>
      <point x="189" y="733"/>
      <point x="269" y="732" type="curve" smooth="yes"/>
      <point x="347" y="730"/>
      <point x="397" y="679"/>
      <point x="397" y="602" type="curve" smooth="yes"/>
      <point x="397" y="-10" type="line" smooth="yes"/>
      <point x="397" y="-70"/>
      <point x="423" y="-100"/>
      <point x="470" y="-100" type="curve" smooth="yes"/>
      <point x="493" y="-100"/>
      <point x="519" y="-87"/>
      <point x="542" y="-63" type="curve"/>
    </contour>
  </outline>
</glyph>
<glyph name="four.dnom" format="1">
  <advance width="361"/>
  <outline>
    <contour>
      <point x="215" y="406" type="line"/>
      <point x="193" y="406" type="line"/>
      <point x="35" y="138" type="line"/>
      <point x="35" y="117" type="line"/>
      <point x="237" y="117" type="line"/>
      <point x="237" y="0" type="line"/>
      <point x="258" y="0" type="line"/>
      <point x="258" y="117" type="line"/>
      <point x="324" y="117" type="line"/>
      <point x="324" y="135" type="line"/>
      <point x="258" y="135" type="line"/>
      <point x="258" y="261" type="line"/>
      <point x="237" y="261" type="line"/>
      <point x="237" y="135" type="line"/>
      <point x="56" y="135" type="line"/>
    </contour>
  </outline>
</glyph>
<glyph name="four.numr" format="1">
  <advance width="361"/>
  <outline>
    <contour>
      <point x="215" y="699" type="line"/>
      <point x="193" y="699" type="line"/>
      <point x="35" y="431" type="line"/>
      <point x="35" y="410" type="line"/>
      <point x="237" y="410" type="line"/>
      <point x="237" y="293" type="line"/>
      <point x="258" y="293" type="line"/>
      <point x="258" y="410" type="line"/>
      <point x="324" y="410" type="line"/>
      <point x="324" y="428" type="line"/>
      <point x="258" y="428" type="line"/>
      <point x="258" y="554" type="line"/>
      <point x="237" y="554" type="line"/>
      <point x="237" y="428" type="line"/>
      <point x="56" y="428" type="line"/>
    </contour>
  </outline>
</glyph>
<glyph name="four.ss01" format="1">
  <advance width="543"/>
  <outline>
    <contour>
      <point x="302" y="599" type="line"/>
      <point x="34" y="133" type="line"/>
      <point x="34" y="108" type="line"/>
      <point x="372" y="108" type="line"/>
      <point x="372" y="-100" type="line"/>
      <point x="392" y="-100" type="line"/>
      <point x="392" y="108" type="line"/>
      <point x="504" y="108" type="line"/>
      <point x="504" y="128" type="line"/>
      <point x="392" y="128" type="line"/>
      <point x="392" y="351" type="line"/>
      <point x="372" y="351" type="line"/>
      <point x="372" y="128" type="line"/>
      <point x="54" y="128" type="line"/>
      <point x="325" y="599" type="line"/>
    </contour>
  </outline>
</glyph>
<glyph name="g.ss01" format="1">
  <advance width="630"/>
  <outline>
    <contour>
      <point x="516" y="517" type="line"/>
      <point x="516" y="59" type="line"/>
      <point x="516" y="-83"/>
      <point x="427" y="-174"/>
      <point x="290" y="-173" type="curve"/>
      <point x="206" y="-169"/>
      <point x="138" y="-122"/>
      <point x="116" y="-55" type="curve"/>
      <point x="98" y="-62" type="line"/>
      <point x="121" y="-138"/>
      <point x="196" y="-189"/>
      <point x="290" y="-193" type="curve"/>
      <point x="439" y="-194"/>
      <point x="536" y="-95"/>
      <point x="536" y="59" type="curve"/>
      <point x="536" y="517" type="line"/>
    </contour>
    <contour>
      <point x="154" y="517"/>
      <point x="52" y="412"/>
      <point x="52" y="267" type="curve" smooth="yes"/>
      <point x="52" y="124"/>
      <point x="154" y="19"/>
      <point x="293" y="19" type="curve" smooth="yes"/>
      <point x="433" y="19"/>
      <point x="535" y="124"/>
      <point x="535" y="267" type="curve"/>
      <point x="535" y="412"/>
      <point x="433" y="517"/>
      <point x="293" y="517" type="curve" smooth="yes"/>
    </contour>
    <contour>
      <point x="422" y="498"/>
      <point x="516" y="400"/>
      <point x="516" y="267" type="curve" smooth="yes"/>
      <point x="516" y="135"/>
      <point x="422" y="38"/>
      <point x="293" y="38" type="curve" smooth="yes"/>
      <point x="164" y="38"/>
      <point x="71" y="135"/>
      <point x="71" y="267" type="curve" smooth="yes"/>
      <point x="71" y="400"/>
      <point x="164" y="498"/>
      <point x="293" y="498" type="curve" smooth="yes"/>
    </contour>
    <contour>
      <point x="312" y="517" type="move" name="top"/>
    </contour>
  </outline>
</glyph>
<glyph name="k.util" format="1">
  <advance width="538"/>
  <outline>
    <contour>
      <point x="464" y="517" type="line"/>
      <point x="128" y="178" type="line"/>
      <point x="128" y="147" type="line"/>
      <point x="492" y="517" type="line"/>
    </contour>
    <contour>
      <point x="272" y="314" type="line"/>
      <point x="498" y="0" type="line"/>
      <point x="522" y="0" type="line"/>
      <point x="288" y="326" type="line"/>
    </contour>
    <contour>
      <point x="269" y="0" type="move" name="bottom"/>
    </contour>
  </outline>
</glyph>
<glyph name="l.ss01" format="1">
  <advance width="259"/>
  <outline>
    <contour>
      <point x="102" y="90" type="line" smooth="yes"/>
      <point x="102" y="30"/>
      <point x="128" y="0"/>
      <point x="175" y="0" type="curve" smooth="yes"/>
      <point x="198" y="0"/>
      <point x="224" y="13"/>
      <point x="247" y="37" type="curve"/>
      <point x="234" y="51" type="line"/>
      <point x="215" y="31"/>
      <point x="194" y="20"/>
      <point x="175" y="20" type="curve" smooth="yes"/>
      <point x="140" y="20"/>
      <point x="121" y="43"/>
      <point x="121" y="90" type="curve" smooth="yes"/>
      <point x="121" y="742" type="line"/>
      <point x="102" y="742" type="line"/>
    </contour>
    <contour>
      <point x="130" y="517" type="move" name="top"/>
    </contour>
    <contour>
      <point x="130" y="0" type="move" name="bottom"/>
    </contour>
    <contour>
      <point x="240" y="517" type="move" name="topright"/>
    </contour>
  </outline>
</glyph>
<glyph name="n.util" format="1">
  <advance width="639"/>
  <outline>
    <contour>
      <point x="194" y="514"/>
      <point x="106" y="416"/>
      <point x="106" y="253" type="curve"/>
      <point x="124" y="253" type="line"/>
      <point x="124" y="403"/>
      <point x="205" y="494"/>
      <point x="343" y="497" type="curve"/>
      <point x="458" y="497"/>
      <point x="526" y="429"/>
      <point x="526" y="313" type="curve"/>
      <point x="526" y="0" type="line" smooth="yes"/>
      <point x="546" y="0" type="line"/>
      <point x="546" y="313" type="line"/>
      <point x="546" y="441"/>
      <point x="471" y="517"/>
      <point x="343" y="517" type="curve"/>
    </contour>
    <contour>
      <point x="320" y="0" type="move" name="bottom"/>
    </contour>
    <contour>
      <point x="320" y="517" type="move" name="top"/>
    </contour>
  </outline>
</glyph>
<glyph name="nine.dnom" format="1">
  <advance width="390"/>
  <outline>
    <contour>
      <point x="278" y="0"/>
      <point x="340" y="85"/>
      <point x="340" y="213" type="curve" smooth="yes"/>
      <point x="340" y="338"/>
      <point x="282" y="406"/>
      <point x="184" y="406" type="curve" smooth="yes"/>
      <point x="102" y="406"/>
      <point x="49" y="357"/>
      <point x="49" y="276" type="curve" smooth="yes"/>
      <point x="49" y="198"/>
      <point x="99" y="150"/>
      <point x="180" y="150" type="curve" smooth="yes"/>
      <point x="254" y="150"/>
      <point x="304" y="190"/>
      <point x="318" y="254" type="curve"/>
      <point x="331" y="107"/>
      <point x="277" y="18"/>
      <point x="176" y="18" type="curve" smooth="yes"/>
      <point x="143" y="18"/>
      <point x="105" y="27"/>
      <point x="76" y="43" type="curve"/>
      <point x="66" y="26" type="line"/>
      <point x="101" y="10"/>
      <point x="142" y="0"/>
      <point x="178" y="0" type="curve" smooth="yes"/>
    </contour>
    <contour>
      <point x="114" y="168"/>
      <point x="70" y="209"/>
      <point x="70" y="275" type="curve" smooth="yes"/>
      <point x="70" y="344"/>
      <point x="118" y="387"/>
      <point x="187" y="387" type="curve" smooth="yes"/>
      <point x="272" y="387"/>
      <point x="307" y="323"/>
      <point x="307" y="279" type="curve"/>
      <point x="307" y="222"/>
      <point x="261" y="168"/>
      <point x="182" y="168" type="curve" smooth="yes"/>
    </contour>
  </outline>
</glyph>
<glyph name="nine.numr" format="1">
  <advance width="390"/>
  <outline>
    <contour>
      <point x="278" y="293"/>
      <point x="340" y="378"/>
      <point x="340" y="506" type="curve" smooth="yes"/>
      <point x="340" y="631"/>
      <point x="282" y="699"/>
      <point x="184" y="699" type="curve" smooth="yes"/>
      <point x="102" y="699"/>
      <point x="49" y="650"/>
      <point x="49" y="569" type="curve" smooth="yes"/>
      <point x="49" y="491"/>
      <point x="99" y="443"/>
      <point x="180" y="443" type="curve" smooth="yes"/>
      <point x="254" y="443"/>
      <point x="304" y="483"/>
      <point x="318" y="547" type="curve"/>
      <point x="331" y="400"/>
      <point x="277" y="311"/>
      <point x="176" y="311" type="curve" smooth="yes"/>
      <point x="143" y="311"/>
      <point x="105" y="320"/>
      <point x="76" y="336" type="curve"/>
      <point x="66" y="319" type="line"/>
      <point x="101" y="303"/>
      <point x="142" y="293"/>
      <point x="178" y="293" type="curve" smooth="yes"/>
    </contour>
    <contour>
      <point x="114" y="461"/>
      <point x="70" y="502"/>
      <point x="70" y="568" type="curve" smooth="yes"/>
      <point x="70" y="637"/>
      <point x="118" y="680"/>
      <point x="187" y="680" type="curve" smooth="yes"/>
      <point x="272" y="680"/>
      <point x="307" y="616"/>
      <point x="307" y="572" type="curve"/>
      <point x="307" y="515"/>
      <point x="261" y="461"/>
      <point x="182" y="461" type="curve" smooth="yes"/>
    </contour>
  </outline>
</glyph>
<glyph name="one.dnom" format="1">
  <advance width="241"/>
  <outline>
    <contour>
      <point x="137" y="406" type="line"/>
      <point x="27" y="406" type="line"/>
      <point x="27" y="387" type="line"/>
      <point x="116" y="387" type="line"/>
      <point x="116" y="0" type="line"/>
      <point x="137" y="0" type="line"/>
    </contour>
  </outline>
</glyph>
<glyph name="one.numr" format="1">
  <advance width="241"/>
  <outline>
    <contour>
      <point x="137" y="699" type="line"/>
      <point x="27" y="699" type="line"/>
      <point x="27" y="680" type="line"/>
      <point x="116" y="680" type="line"/>
      <point x="116" y="293" type="line"/>
      <point x="137" y="293" type="line"/>
    </contour>
  </outline>
</glyph>
<glyph name="one.ss01" format="1">
  <advance width="345"/>
  <outline>
    <contour>
      <point x="22" y="599" type="line"/>
      <point x="22" y="579" type="line"/>
      <point x="172" y="579" type="line"/>
      <point x="172" y="0" type="line"/>
      <point x="192" y="0" type="line"/>
      <point x="192" y="599" type="line"/>
    </contour>
  </outline>
</glyph>
<glyph name="seven.dnom" format="1">
  <advance width="351"/>
  <outline>
    <contour>
      <point x="315" y="406" type="line"/>
      <point x="40" y="406" type="line"/>
      <point x="40" y="323" type="line"/>
      <point x="60" y="323" type="line"/>
      <point x="60" y="387" type="line"/>
      <point x="294" y="387" type="line"/>
      <point x="109" y="0" type="line"/>
      <point x="132" y="0" type="line"/>
      <point x="315" y="385" type="line"/>
    </contour>
  </outline>
</glyph>
<glyph name="seven.numr" format="1">
  <advance width="351"/>
  <outline>
    <contour>
      <point x="315" y="699" type="line"/>
      <point x="40" y="699" type="line"/>
      <point x="40" y="616" type="line"/>
      <point x="60" y="616" type="line"/>
      <point x="60" y="680" type="line"/>
      <point x="294" y="680" type="line"/>
      <point x="109" y="293" type="line"/>
      <point x="132" y="293" type="line"/>
      <point x="315" y="678" type="line"/>
    </contour>
  </outline>
</glyph>
<glyph name="seven.ss01" format="1">
  <advance width="529"/>
  <outline>
    <contour>
      <point x="43" y="599" type="line"/>
      <point x="43" y="467" type="line"/>
      <point x="63" y="467" type="line"/>
      <point x="63" y="579" type="line"/>
      <point x="473" y="579" type="line"/>
      <point x="160" y="-100" type="line"/>
      <point x="182" y="-100" type="line"/>
      <point x="492" y="574" type="line"/>
      <point x="492" y="599" type="line"/>
    </contour>
  </outline>
</glyph>
<glyph name="six.dnom" format="1">
  <advance width="385"/>
  <outline>
    <contour>
      <point x="112" y="406"/>
      <point x="50" y="321"/>
      <point x="50" y="193" type="curve" smooth="yes"/>
      <point x="50" y="67"/>
      <point x="109" y="0"/>
      <point x="206" y="0" type="curve" smooth="yes"/>
      <point x="288" y="0"/>
      <point x="341" y="49"/>
      <point x="341" y="129" type="curve" smooth="yes"/>
      <point x="341" y="208"/>
      <point x="291" y="255"/>
      <point x="210" y="255" type="curve" smooth="yes"/>
      <point x="137" y="255"/>
      <point x="86" y="216"/>
      <point x="73" y="152" type="curve"/>
      <point x="60" y="298"/>
      <point x="114" y="387"/>
      <point x="214" y="387" type="curve" smooth="yes"/>
      <point x="247" y="387"/>
      <point x="285" y="378"/>
      <point x="315" y="363" type="curve"/>
      <point x="324" y="380" type="line"/>
      <point x="290" y="396"/>
      <point x="248" y="406"/>
      <point x="213" y="406" type="curve" smooth="yes"/>
    </contour>
    <contour>
      <point x="276" y="237"/>
      <point x="321" y="197"/>
      <point x="321" y="131" type="curve" smooth="yes"/>
      <point x="321" y="61"/>
      <point x="272" y="18"/>
      <point x="203" y="18" type="curve" smooth="yes"/>
      <point x="119" y="18"/>
      <point x="83" y="82"/>
      <point x="83" y="126" type="curve"/>
      <point x="83" y="184"/>
      <point x="130" y="237"/>
      <point x="208" y="237" type="curve" smooth="yes"/>
    </contour>
  </outline>
</glyph>
<glyph name="six.numr" format="1">
  <advance width="385"/>
  <outline>
    <contour>
      <point x="112" y="699"/>
      <point x="50" y="614"/>
      <point x="50" y="486" type="curve" smooth="yes"/>
      <point x="50" y="360"/>
      <point x="109" y="293"/>
      <point x="206" y="293" type="curve" smooth="yes"/>
      <point x="288" y="293"/>
      <point x="341" y="342"/>
      <point x="341" y="422" type="curve" smooth="yes"/>
      <point x="341" y="501"/>
      <point x="291" y="548"/>
      <point x="210" y="548" type="curve" smooth="yes"/>
      <point x="137" y="548"/>
      <point x="86" y="509"/>
      <point x="73" y="445" type="curve"/>
      <point x="60" y="591"/>
      <point x="114" y="680"/>
      <point x="214" y="680" type="curve" smooth="yes"/>
      <point x="247" y="680"/>
      <point x="285" y="671"/>
      <point x="315" y="656" type="curve"/>
      <point x="324" y="673" type="line"/>
      <point x="290" y="689"/>
      <point x="248" y="699"/>
      <point x="213" y="699" type="curve" smooth="yes"/>
    </contour>
    <contour>
      <point x="276" y="530"/>
      <point x="321" y="490"/>
      <point x="321" y="424" type="curve" smooth="yes"/>
      <point x="321" y="354"/>
      <point x="272" y="311"/>
      <point x="203" y="311" type="curve" smooth="yes"/>
      <point x="119" y="311"/>
      <point x="83" y="375"/>
      <point x="83" y="419" type="curve"/>
      <point x="83" y="477"/>
      <point x="130" y="530"/>
      <point x="208" y="530" type="curve" smooth="yes"/>
    </contour>
  </outline>
</glyph>
<glyph name="three.dnom" format="1">
  <advance width="338"/>
  <outline>
    <contour>
      <point x="123" y="230" type="line"/>
      <point x="265" y="390" type="line"/>
      <point x="265" y="405" type="line"/>
      <point x="39" y="405" type="line"/>
      <point x="39" y="387" type="line"/>
      <point x="239" y="387" type="line"/>
      <point x="97" y="228" type="line"/>
      <point x="97" y="213" type="line"/>
      <point x="142" y="213" type="line" smooth="yes"/>
      <point x="218" y="213"/>
      <point x="264" y="181"/>
      <point x="264" y="121" type="curve" smooth="yes"/>
      <point x="264" y="61"/>
      <point x="219" y="18"/>
      <point x="143" y="18" type="curve" smooth="yes"/>
      <point x="103" y="18"/>
      <point x="62" y="31"/>
      <point x="33" y="52" type="curve"/>
      <point x="22" y="35" type="line"/>
      <point x="54" y="14"/>
      <point x="100" y="0"/>
      <point x="144" y="0" type="curve" smooth="yes"/>
      <point x="231" y="0"/>
      <point x="285" y="50"/>
      <point x="285" y="123" type="curve" smooth="yes"/>
      <point x="285" y="190"/>
      <point x="230" y="229"/>
      <point x="148" y="230" type="curve" smooth="yes"/>
    </contour>
  </outline>
</glyph>
<glyph name="three.ss01" format="1">
  <advance width="508"/>
  <outline>
    <contour>
      <point x="166" y="294" type="line"/>
      <point x="409" y="581" type="line"/>
      <point x="409" y="599" type="line"/>
      <point x="41" y="599" type="line"/>
      <point x="41" y="579" type="line"/>
      <point x="382" y="579" type="line"/>
      <point x="138" y="292" type="line"/>
      <point x="138" y="274" type="line"/>
      <point x="208" y="274" type="line" smooth="yes"/>
      <point x="341" y="274"/>
      <point x="422" y="217"/>
      <point x="422" y="107" type="curve" smooth="yes"/>
      <point x="422" y="-2"/>
      <point x="343" y="-80"/>
      <point x="210" y="-80" type="curve" smooth="yes"/>
      <point x="143" y="-80"/>
      <point x="74" y="-58"/>
      <point x="25" y="-25" type="curve"/>
      <point x="13" y="-41" type="line"/>
      <point x="66" y="-76"/>
      <point x="139" y="-100"/>
      <point x="210" y="-100" type="curve" smooth="yes"/>
      <point x="353" y="-100"/>
      <point x="442" y="-14"/>
      <point x="442" y="111" type="curve" smooth="yes"/>
      <point x="442" y="227"/>
      <point x="349" y="294"/>
      <point x="208" y="294" type="curve" smooth="yes"/>
    </contour>
  </outline>
</glyph>
<glyph name="two.dnom" format="1">
  <advance width="374"/>
  <outline>
    <contour>
      <point x="127" y="406"/>
      <point x="79" y="386"/>
      <point x="44" y="352" type="curve"/>
      <point x="56" y="337" type="line"/>
      <point x="87" y="368"/>
      <point x="131" y="387"/>
      <point x="171" y="387" type="curve"/>
      <point x="234" y="387"/>
      <point x="272" y="357"/>
      <point x="272" y="309" type="curve"/>
      <point x="272" y="278"/>
      <point x="247" y="234"/>
      <point x="206" y="193" type="curve" smooth="yes"/>
      <point x="45" y="21" type="line"/>
      <point x="45" y="0" type="line"/>
      <point x="323" y="0" type="line"/>
      <point x="323" y="19" type="line"/>
      <point x="69" y="19" type="line"/>
      <point x="220" y="181" type="line" smooth="yes"/>
      <point x="266" y="226"/>
      <point x="293" y="274"/>
      <point x="293" y="310" type="curve"/>
      <point x="293" y="369"/>
      <point x="247" y="406"/>
      <point x="173" y="406" type="curve"/>
    </contour>
  </outline>
</glyph>
<glyph name="two.ss01" format="1">
  <advance width="543"/>
  <outline>
    <contour>
      <point x="177" y="608"/>
      <point x="104" y="579"/>
      <point x="52" y="529" type="curve"/>
      <point x="65" y="515" type="line"/>
      <point x="113" y="561"/>
      <point x="182" y="589"/>
      <point x="246" y="589" type="curve" smooth="yes"/>
      <point x="349" y="589"/>
      <point x="411" y="542"/>
      <point x="411" y="466" type="curve" smooth="yes"/>
      <point x="411" y="418"/>
      <point x="371" y="350"/>
      <point x="305" y="286" type="curve" smooth="yes"/>
      <point x="51" y="26" type="line"/>
      <point x="51" y="0" type="line"/>
      <point x="480" y="0" type="line"/>
      <point x="480" y="20" type="line"/>
      <point x="72" y="20" type="line"/>
      <point x="319" y="273" type="line" smooth="yes"/>
      <point x="389" y="341"/>
      <point x="432" y="414"/>
      <point x="432" y="466" type="curve" smooth="yes"/>
      <point x="432" y="554"/>
      <point x="361" y="608"/>
      <point x="246" y="608" type="curve" smooth="yes"/>
    </contour>
  </outline>
</glyph>
<glyph name="w.ss01" format="1">
  <advance width="957"/>
  <outline>
    <contour>
      <point x="847" y="517" type="line"/>
      <point x="847" y="194" type="line" smooth="yes"/>
      <point x="847" y="88"/>
      <point x="777" y="20"/>
      <point x="670" y="20" type="curve" smooth="yes"/>
      <point x="561" y="20"/>
      <point x="489" y="88"/>
      <point x="489" y="194" type="curve" smooth="yes"/>
      <point x="489" y="517" type="line"/>
      <point x="469" y="517" type="line"/>
      <point x="469" y="194" type="line" smooth="yes"/>
      <point x="469" y="88"/>
      <point x="398" y="20"/>
      <point x="287" y="20" type="curve" smooth="yes"/>
      <point x="180" y="20"/>
      <point x="110" y="88"/>
      <point x="110" y="194" type="curve" smooth="yes"/>
      <point x="110" y="517" type="line"/>
      <point x="90" y="517" type="line"/>
      <point x="90" y="194" type="line" smooth="yes"/>
      <point x="90" y="76"/>
      <point x="168" y="0"/>
      <point x="286" y="0" type="curve" smooth="yes"/>
      <point x="381" y="0"/>
      <point x="457" y="50"/>
      <point x="479" y="127" type="curve"/>
      <point x="501" y="50"/>
      <point x="576" y="0"/>
      <point x="671" y="0" type="curve" smooth="yes"/>
      <point x="789" y="0"/>
      <point x="867" y="76"/>
      <point x="867" y="194" type="curve" smooth="yes"/>
      <point x="867" y="517" type="line"/>
    </contour>
    <contour>
      <point x="479" y="517" type="move" name="top"/>
    </contour>
  </outline>
</glyph>
<glyph name="y.ss01" format="1">
  <advance width="629"/>
  <outline>
    <contour>
      <point x="445" y="47"/>
      <point x="533" y="145"/>
      <point x="533" y="308" type="curve"/>
      <point x="515" y="308" type="line"/>
      <point x="515" y="158"/>
      <point x="434" y="67"/>
      <point x="296" y="64" type="curve"/>
      <point x="181" y="64"/>
      <point x="113" y="132"/>
      <point x="113" y="248" type="curve"/>
      <point x="113" y="517" type="line" smooth="yes"/>
      <point x="93" y="517" type="line"/>
      <point x="93" y="248" type="line"/>
      <point x="93" y="120"/>
      <point x="168" y="44"/>
      <point x="296" y="44" type="curve"/>
    </contour>
    <contour>
      <point x="515" y="517" type="line"/>
      <point x="515" y="59" type="line"/>
      <point x="515" y="-89"/>
      <point x="436" y="-174"/>
      <point x="299" y="-173" type="curve"/>
      <point x="224" y="-169"/>
      <point x="156" y="-136"/>
      <point x="110" y="-83" type="curve"/>
      <point x="97" y="-97" type="line"/>
      <point x="146" y="-154"/>
      <point x="220" y="-189"/>
      <point x="299" y="-193" type="curve"/>
      <point x="449" y="-194"/>
      <point x="535" y="-102"/>
      <point x="535" y="59" type="curve"/>
      <point x="535" y="517" type="line"/>
    </contour>
    <contour>
      <point x="312" y="517" type="move" name="top"/>
    </contour>
  </outline>
</glyph>
<glyph name="z.ss01" format="1">
  <advance width="510"/>
  <outline>
    <contour>
      <point x="256" y="269" type="line"/>
      <point x="256" y="249" type="line"/>
      <point x="424" y="249" type="line"/>
      <point x="424" y="269" type="line"/>
    </contour>
    <contour>
      <point x="102" y="271" type="line"/>
      <point x="102" y="251" type="line"/>
      <point x="260" y="251" type="line"/>
      <point x="260" y="271" type="line"/>
    </contour>
    <contour>
      <point x="71" y="517" type="line"/>
      <point x="71" y="497" type="line"/>
      <point x="432" y="496" type="line"/>
      <point x="62" y="25" type="line"/>
      <point x="62" y="0" type="line"/>
      <point x="459" y="-1" type="line"/>
      <point x="459" y="19" type="line"/>
      <point x="82" y="20" type="line"/>
      <point x="452" y="491" type="line"/>
      <point x="452" y="516" type="line"/>
    </contour>
    <contour>
      <point x="255" y="517" type="move" name="top"/>
    </contour>
  </outline>
</glyph>
<glyph name="zero.dnom" format="1">
  <advance width="436"/>
  <outline>
    <contour>
      <point x="110" y="406"/>
      <point x="50" y="333"/>
      <point x="50" y="203" type="curve" smooth="yes"/>
      <point x="50" y="72"/>
      <point x="110" y="0"/>
      <point x="217" y="0" type="curve" smooth="yes"/>
      <point x="325" y="0"/>
      <point x="386" y="72"/>
      <point x="386" y="203" type="curve" smooth="yes"/>
      <point x="386" y="333"/>
      <point x="325" y="406"/>
      <point x="217" y="406" type="curve" smooth="yes"/>
    </contour>
    <contour>
      <point x="312" y="388"/>
      <point x="364" y="323"/>
      <point x="364" y="203" type="curve" smooth="yes"/>
      <point x="364" y="83"/>
      <point x="312" y="18"/>
      <point x="217" y="18" type="curve" smooth="yes"/>
      <point x="123" y="18"/>
      <point x="71" y="83"/>
      <point x="71" y="203" type="curve" smooth="yes"/>
      <point x="71" y="323"/>
      <point x="123" y="388"/>
      <point x="217" y="388" type="curve" smooth="yes"/>
    </contour>
  </outline>
</glyph>
<glyph name="zero.numr" format="1">
  <advance width="436"/>
  <outline>
    <contour>
      <point x="110" y="699"/>
      <point x="50" y="626"/>
      <point x="50" y="496" type="curve" smooth="yes"/>
      <point x="50" y="365"/>
      <point x="110" y="293"/>
      <point x="217" y="293" type="curve" smooth="yes"/>
      <point x="325" y="293"/>
      <point x="386" y="365"/>
      <point x="386" y="496" type="curve" smooth="yes"/>
      <point x="386" y="626"/>
      <point x="325" y="699"/>
      <point x="217" y="699" type="curve" smooth="yes"/>
    </contour>
    <contour>
      <point x="312" y="681"/>
      <point x="364" y="616"/>
      <point x="364" y="496" type="curve" smooth="yes"/>
      <point x="364" y="376"/>
      <point x="312" y="311"/>
      <point x="217" y="311" type="curve" smooth="yes"/>
      <point x="123" y="311"/>
      <point x="71" y="376"/>
      <point x="71" y="496" type="curve" smooth="yes"/>
      <point x="71" y="616"/>
      <point x="123" y="681"/>
      <point x="217" y="681" type="curve" smooth="yes"/>
    </contour>
  </outline>
</glyph>
<glyph name="zero.ss01" format="1">
  <advance width="673"/>
  <outline>
    <contour>
      <point x="176" y="599"/>
      <point x="60" y="473"/>
      <point x="60" y="300" type="curve" smooth="yes"/>
      <point x="60" y="126"/>
      <point x="176" y="0"/>
      <point x="336" y="0" type="curve" smooth="yes"/>
      <point x="496" y="0"/>
      <point x="613" y="126"/>
      <point x="613" y="300" type="curve" smooth="yes"/>
      <point x="613" y="473"/>
      <point x="496" y="599"/>
      <point x="336" y="599" type="curve" smooth="yes"/>
    </contour>
    <contour>
      <point x="485" y="579"/>
      <point x="593" y="461"/>
      <point x="593" y="300" type="curve" smooth="yes"/>
      <point x="593" y="138"/>
      <point x="485" y="20"/>
      <point x="336" y="20" type="curve" smooth="yes"/>
      <point x="188" y="20"/>
      <point x="80" y="138"/>
      <point x="80" y="300" type="curve" smooth="yes"/>
      <point x="80" y="461"/>
      <point x="188" y="579"/>
      <point x="336" y="579" type="curve" smooth="yes"/>
    </contour>
  </outline>
</glyph>
